<svg width="25" height="26" viewBox="0 0 25 26" fill="none" xmlns="http://www.w3.org/2000/svg">
<circle cx="13" cy="13" r="11.5" stroke="#013354"/>
<path d="M11.3749 17.884C11.3749 17.704 11.3869 17.5 11.4109 17.272C11.4469 17.044 11.4949 16.78 11.5549 16.48C11.6149 16.18 11.6749 15.838 11.7349 15.454L12.5449 11.152C12.5809 10.972 12.5509 10.84 12.4549 10.756C12.3709 10.66 12.2329 10.582 12.0409 10.522C11.8489 10.45 11.6029 10.39 11.3029 10.342L11.1049 10.306L11.2309 9.676H13.8589L12.7069 15.778C12.6589 16.066 12.6109 16.342 12.5629 16.606C12.5149 16.858 12.4729 17.086 12.4369 17.29C12.4129 17.494 12.4009 17.662 12.4009 17.794C12.4009 17.986 12.4549 18.13 12.5629 18.226C12.6709 18.31 12.8149 18.352 12.9949 18.352C13.1989 18.352 13.3849 18.334 13.5529 18.298C13.7209 18.25 13.8769 18.202 14.0209 18.154C14.1649 18.106 14.2729 18.076 14.3449 18.064L14.2189 18.766C14.1109 18.814 13.9789 18.868 13.8229 18.928C13.6669 18.976 13.4989 19.018 13.3189 19.054C13.1509 19.09 12.9709 19.108 12.7789 19.108C12.5029 19.108 12.2569 19.066 12.0409 18.982C11.8369 18.898 11.6749 18.766 11.5549 18.586C11.4349 18.394 11.3749 18.16 11.3749 17.884ZM12.7609 6.364C12.7609 6.076 12.8449 5.86 13.0129 5.716C13.1809 5.56 13.3909 5.482 13.6429 5.482C13.8949 5.482 14.1049 5.56 14.2729 5.716C14.4529 5.86 14.5429 6.076 14.5429 6.364C14.5429 6.652 14.4529 6.874 14.2729 7.03C14.1049 7.174 13.8949 7.246 13.6429 7.246C13.3909 7.246 13.1809 7.174 13.0129 7.03C12.8449 6.874 12.7609 6.652 12.7609 6.364Z" fill="#013354"/>
</svg>
