<svg width="56" height="60" viewBox="0 0 56 60" fill="none" xmlns="http://www.w3.org/2000/svg">
<path fill-rule="evenodd" clip-rule="evenodd" d="M0.647074 59.4034C-0.234331 58.6515 -0.246197 57.0623 0.80253 55.6212L5.17399 50.4524C6.35051 49.2286 7.88407 48.5416 9.48483 47.9525L7.1331 45.4145C6.29781 44.467 6.50861 43.5596 7.40846 42.8414L7.56787 42.7214C5.35447 38.7737 4.26227 34.1412 4.6865 29.2936C5.03828 25.2681 6.39267 21.5703 8.48354 18.4262L8.43611 18.388C7.79976 17.7439 7.88539 16.7887 8.57839 16.0552L11.6864 12.6174C11.9512 12.3388 12.2213 12.1572 12.49 12.0628C10.8761 11.4704 9.32542 10.7821 8.13835 9.54768L3.76689 4.37877C2.71817 2.93781 2.73135 1.34847 3.61144 0.5966C4.64304 -0.423176 6.44273 -0.0703239 7.64955 1.15931L11.4387 5.32784C12.0302 5.96191 12.4848 6.52134 12.8075 7.32373C13.2515 8.46617 13.5651 9.64054 13.8457 10.783C14.0223 11.5091 14.2792 11.9084 14.5282 12.2286C18.8588 9.18757 24.2408 7.59809 29.9192 8.09538C34.2076 8.47119 38.1245 9.99023 41.3946 12.326C41.666 11.988 41.9598 11.5846 42.1548 10.783C42.4341 9.64054 42.749 8.46617 43.193 7.32373C43.5144 6.52134 43.969 5.96191 44.5618 5.32784L48.3496 1.15931C49.5578 -0.0703239 51.3562 -0.423176 52.3891 0.5966C53.2692 1.34847 53.2823 2.93781 52.2336 4.37877L47.8622 9.54768C46.6949 10.7611 45.1771 11.4467 43.5922 12.0324C43.8293 12.149 44.0559 12.3229 44.2562 12.5497L47.4063 15.9495C48.1955 16.845 48.0506 17.7045 47.2732 18.4027C50.1085 22.6579 51.5709 27.8704 51.0914 33.3584C50.8015 36.6799 49.8279 39.7781 48.322 42.5262L48.4656 42.6305L48.7699 42.8754C49.4063 43.5194 49.3206 44.4746 48.6276 45.208L46.2298 47.8607C46.2864 47.8789 46.3444 47.896 46.405 47.9118C48.044 48.5101 49.6223 49.2003 50.8265 50.4524L55.198 55.6212C56.2467 57.0623 56.2335 58.6515 55.3534 59.4034C54.3218 60.4232 52.5221 60.0703 51.3153 58.8407L47.5262 54.6723C46.9346 54.0381 46.4801 53.4787 46.1573 52.6763C45.7133 51.5338 45.3984 50.3595 45.1191 49.217C45.1033 49.1508 45.0862 49.0873 45.0691 49.0264C44.4446 49.4269 43.8109 49.3336 43.2299 48.868C38.6213 52.9074 32.4382 55.133 25.8587 54.5566C20.8206 54.1155 16.2976 52.0968 12.7311 49.0296C12.7272 49.0331 12.7232 49.0368 12.7206 49.0404C12.191 49.5783 11.4835 49.6334 10.8629 49.2882C10.5876 50.4083 10.278 51.5576 9.84318 52.6763C9.5204 53.4787 9.06586 54.0381 8.4743 54.6723L4.68519 58.8407C3.47836 60.0703 1.67867 60.4232 0.647074 59.4034ZM42.5816 48.2L37.5383 42.5508C34.6213 45.064 30.7334 46.4435 26.5991 46.0813C23.4213 45.8031 20.5663 44.5365 18.3068 42.6104L13.3398 48.3274C16.7627 51.2703 21.1051 53.2072 25.9404 53.6304C32.2393 54.1823 38.1601 52.0584 42.5816 48.2ZM26.9693 50.9016C26.7453 50.6668 26.636 50.348 26.6373 49.9513C26.6373 49.5547 26.748 49.2363 26.9719 49.0021C27.1972 48.7679 27.5029 48.6531 27.8823 48.6538C28.2631 48.6544 28.5688 48.77 28.7927 49.0052C29.0167 49.2401 29.126 49.5589 29.126 49.9556C29.1247 50.3521 29.0154 50.6705 28.7901 50.9046C28.5648 51.139 28.2591 51.2538 27.8784 51.253C27.4976 51.2525 27.1933 51.1368 26.9693 50.9016ZM26.1432 51.1549L25.1828 51.0145C25.1551 51.0105 25.1367 50.9854 25.1406 50.9583L25.1749 50.7227C25.1788 50.6958 25.2039 50.6771 25.2315 50.6809L25.4173 50.7081L25.5306 49.9318L24.6769 49.8074L24.5649 50.5836L24.7507 50.6107C24.7783 50.6147 24.7968 50.6399 24.7928 50.6669L24.7586 50.9025C24.7546 50.9294 24.7296 50.9482 24.7019 50.9443L23.7414 50.8041C23.7138 50.8002 23.6953 50.775 23.6993 50.7479L23.7335 50.5122C23.7375 50.4852 23.7625 50.4666 23.7902 50.4704L23.976 50.4977L24.2368 48.7105L24.0498 48.6833C24.0234 48.6794 24.0036 48.6542 24.0076 48.6273L24.0418 48.3915C24.0458 48.3645 24.0721 48.3458 24.0985 48.3496L25.0603 48.4899C25.0866 48.4939 25.1051 48.5191 25.1011 48.546L25.0669 48.7817C25.0629 48.8088 25.0379 48.8276 25.0115 48.8237L24.8244 48.7964L24.7256 49.4738L25.5794 49.5984L25.6782 48.9209L25.4911 48.8937C25.4647 48.8897 25.4463 48.8646 25.4502 48.8375L25.4845 48.6019C25.4884 48.575 25.5135 48.5563 25.5398 48.5601L26.5016 48.7005C26.528 48.7044 26.5477 48.7296 26.5438 48.7567L26.5095 48.9922C26.5042 49.0193 26.4792 49.0379 26.4529 49.0341L26.2658 49.0067L26.0062 50.794L26.192 50.8211C26.2197 50.8251 26.2381 50.8503 26.2342 50.8772L26.1999 51.1129C26.1959 51.1399 26.1709 51.1587 26.1432 51.1549ZM29.5542 51.1083L29.5226 50.8723C29.5187 50.8453 29.5384 50.8203 29.5648 50.8166L29.7519 50.7912L29.5081 49.0016L29.3211 49.0272C29.2934 49.0309 29.2683 49.0119 29.2657 48.9849L29.2328 48.7489C29.2288 48.7218 29.2486 48.6969 29.2749 48.6932L30.2907 48.5543C30.5503 48.5188 30.765 48.5427 30.9284 48.6338C31.0944 48.726 31.1906 48.8771 31.2182 49.08C31.2419 49.2483 31.2222 49.4 31.1563 49.5324C31.1063 49.6319 31.0312 49.718 30.9337 49.7912L30.8796 49.8262L31.5608 50.5437L31.6938 50.5257C31.7215 50.522 31.7452 50.541 31.7492 50.568L31.7821 50.8039C31.7848 50.8309 31.7663 50.8558 31.74 50.8595L31.1339 50.9424C31.1168 50.9446 31.101 50.9381 31.0891 50.9252L30.3342 50.0253L30.2288 50.0397L30.321 50.7134L30.4699 50.693C30.4963 50.6894 30.5213 50.7084 30.5252 50.7354L30.5568 50.9714C30.5608 50.9984 30.5424 51.0233 30.5147 51.027L29.6109 51.1506C29.5832 51.1543 29.5582 51.1353 29.5542 51.1083ZM28.325 50.6614C28.4396 50.4873 28.5002 50.2529 28.5002 49.9545C28.5016 49.6548 28.4423 49.4203 28.3277 49.2462C28.213 49.0738 28.0668 48.9911 27.8823 48.9908C27.6992 48.9905 27.553 49.0727 27.4383 49.2447C27.3224 49.4183 27.2631 49.6528 27.2618 49.9524C27.2618 50.252 27.3211 50.4867 27.4357 50.6607C27.549 50.8331 27.6966 50.9157 27.8797 50.9161C28.0628 50.9162 28.2104 50.8339 28.325 50.6614ZM32.1326 50.7266L32.072 50.4964C32.0641 50.47 32.0799 50.4428 32.1062 50.4358L32.2894 50.3874L31.8256 48.6418L31.6438 48.6903C31.6174 48.6973 31.5898 48.6816 31.5832 48.6552L31.5226 48.425C31.5147 48.3987 31.5305 48.3715 31.5568 48.3645L33.2235 47.9212C33.2498 47.9142 33.2775 47.9299 33.2841 47.9562L33.4066 48.4166C33.4132 48.443 33.3974 48.4701 33.371 48.4771L33.122 48.5432C33.0957 48.5502 33.0693 48.5345 33.0614 48.5081L33.014 48.3257L32.4 48.489L32.5779 49.16L32.9613 49.0579L32.9336 48.9519C32.927 48.9255 32.9428 48.8983 32.9692 48.8913L33.1984 48.8301C33.2248 48.8231 33.2524 48.8388 33.259 48.8652L33.4027 49.4033C33.4092 49.4296 33.3934 49.4568 33.3671 49.4638L33.1365 49.525C33.1102 49.532 33.0838 49.5163 33.0772 49.4899L33.0482 49.3837L32.6648 49.4858L32.8585 50.2159L33.5436 50.0336L33.4896 49.8312C33.483 49.8048 33.4988 49.7776 33.5252 49.7706L33.7755 49.7041C33.8018 49.6971 33.8282 49.7128 33.8348 49.7392L33.9678 50.2384C33.9744 50.2647 33.9586 50.2919 33.9323 50.2989L32.1932 50.7616C32.1668 50.7686 32.1392 50.7529 32.1326 50.7266ZM22.3673 50.4969C22.2685 50.4699 22.1657 50.4332 22.059 50.3869C21.9523 50.3407 21.8416 50.2855 21.727 50.2215C21.7072 50.2104 21.6967 50.1872 21.7033 50.1652L21.8429 49.6561C21.8495 49.6299 21.8772 49.6143 21.9035 49.6216L22.171 49.695C22.1973 49.7022 22.2132 49.7295 22.2066 49.7558L22.1486 49.9668L22.2197 50.0364C22.25 50.0628 22.2803 50.0859 22.308 50.1059C22.366 50.1458 22.4213 50.1723 22.474 50.1867C22.5794 50.2155 22.6677 50.2091 22.7415 50.1721C22.8153 50.1357 22.864 50.0753 22.889 49.9863C22.9127 49.8975 22.9114 49.8246 22.8877 49.7652C22.8627 49.704 22.8008 49.6214 22.694 49.5175L22.5636 49.3915C22.3857 49.2179 22.2619 49.061 22.2 48.921C22.1367 48.7801 22.1249 48.6346 22.1657 48.4869C22.2211 48.2855 22.3409 48.1384 22.5228 48.0499C22.7046 47.9615 22.9088 47.9506 23.1341 48.012C23.2487 48.0434 23.3607 48.0826 23.4687 48.1296C23.5781 48.1764 23.6848 48.2317 23.7876 48.295C23.806 48.3065 23.8139 48.329 23.8086 48.3502L23.6808 48.8157C23.6743 48.842 23.6466 48.8576 23.6202 48.8503L23.3528 48.7768C23.3264 48.7697 23.3106 48.7424 23.3185 48.716L23.3699 48.5238L23.3119 48.467C23.2856 48.4444 23.2606 48.4246 23.2342 48.4074C23.1828 48.3731 23.1315 48.3491 23.0788 48.3347C23.0037 48.314 22.9338 48.3229 22.8666 48.3615C22.7994 48.4001 22.7573 48.4563 22.7362 48.5329C22.7191 48.5948 22.723 48.6507 22.7481 48.7035C22.7744 48.7603 22.8363 48.8398 22.9391 48.9432L23.0695 49.0757C23.2592 49.2662 23.3857 49.4295 23.4463 49.5648C23.5069 49.7037 23.5162 49.8512 23.474 50.0053C23.4134 50.2289 23.279 50.3877 23.0748 50.4769C22.8706 50.5654 22.6334 50.5701 22.3673 50.4969ZM30.1853 49.7155L30.2183 49.7107C30.3909 49.6871 30.5055 49.63 30.5727 49.5469C30.6385 49.4643 30.6662 49.3469 30.6438 49.186C30.628 49.0689 30.5819 48.9936 30.5121 48.9502C30.4409 48.9056 30.3342 48.8887 30.1853 48.9089L30.0773 48.9238L30.1853 49.7155ZM12.4044 48.5013L12.4149 48.4882L17.9919 42.0686C18.3292 41.655 18.4174 41.0621 17.9128 40.5491L15.9643 38.4026C15.6757 38.0676 15.3411 37.9536 14.9748 38.0414L14.6059 38.1923L7.77077 43.3111C7.1107 43.8382 6.9974 44.3641 7.57314 45.0163L10.722 48.4154C11.303 49.0705 11.9789 49.0512 12.4044 48.5013ZM45.0849 48.2421L48.1929 44.8047C48.7936 44.1683 48.7159 43.4953 48.1322 43.1192L48.1178 43.1096L41.2444 38.1065C40.803 37.8061 40.2062 37.7704 39.7398 38.3179L37.7728 40.4489C37.4645 40.7664 37.3802 41.1088 37.5001 41.4672L37.6819 41.8223L43.3708 48.1931C43.9531 48.8055 44.4867 48.8722 45.0849 48.2421ZM11.8181 45.4813L10.664 44.3208C10.6258 44.282 10.6258 44.2193 10.664 44.1808L10.9486 43.8983C10.9868 43.8597 11.05 43.8599 11.0882 43.8986L11.3003 44.1123L13.4057 42.0149L12.8286 41.4338L12.5915 41.6694C12.5533 41.7079 12.49 41.7078 12.4518 41.6692L12.1448 41.3604C12.1066 41.3216 12.1066 41.2589 12.1448 41.2204L12.7588 40.6095C12.797 40.571 12.8603 40.5712 12.8985 40.6098L15.5335 43.2607C15.5717 43.2995 15.5717 43.3622 15.5335 43.4007L14.9195 44.0116C14.8813 44.0501 14.818 44.0499 14.7798 44.0112L14.4755 43.7042C14.436 43.6656 14.436 43.6029 14.4755 43.5644L14.7113 43.3288L14.1343 42.7478L12.0289 44.8453L12.241 45.059C12.2806 45.0978 12.2792 45.1605 12.241 45.199L11.9578 45.4815C11.9182 45.5201 11.8563 45.5199 11.8181 45.4813ZM43.4841 45.3953L42.8056 44.8231C42.7648 44.7878 42.7595 44.7253 42.7938 44.6836L43.0955 44.3258C43.131 44.2841 43.193 44.2787 43.2351 44.3139L43.5065 44.5431L43.8227 44.4032C43.9229 44.3438 44.0006 44.2797 44.0586 44.2113C44.1758 44.0724 44.2259 43.9366 44.2219 43.8017C44.218 43.6682 44.1626 43.5549 44.048 43.4576C43.9308 43.3591 43.8214 43.3127 43.72 43.3063C43.6119 43.3016 43.4446 43.3378 43.2114 43.4271L42.9268 43.5378C42.5355 43.6877 42.2075 43.765 41.9479 43.7609C41.6844 43.7583 41.4512 43.672 41.251 43.5036C40.9796 43.2742 40.8386 42.9839 40.832 42.6377C40.8254 42.2931 40.9545 41.9688 41.2088 41.6673C41.3379 41.5135 41.4776 41.3696 41.6264 41.2357C41.7753 41.1017 41.9347 40.9782 42.1047 40.8654C42.1416 40.841 42.189 40.8438 42.2233 40.8722L42.8425 41.3956C42.8847 41.4308 42.8899 41.4933 42.8544 41.535L42.554 41.8929C42.5184 41.9346 42.4565 41.94 42.4143 41.9047L42.1679 41.6967L41.9031 41.816C41.8149 41.8698 41.7437 41.931 41.6857 41.9994C41.6041 42.0965 41.5698 42.2051 41.5817 42.3304C41.5922 42.4558 41.6449 42.5578 41.7437 42.6414C41.8241 42.7086 41.9084 42.7394 42.0033 42.7384C42.1047 42.7384 42.2681 42.7013 42.4973 42.6169L42.7924 42.5111C43.2167 42.3565 43.5579 42.2762 43.8096 42.2796C44.0678 42.2844 44.3023 42.3767 44.5105 42.5519C44.8122 42.8062 44.961 43.1273 44.9531 43.5083C44.9439 43.8864 44.7819 44.2551 44.4802 44.6133C44.3682 44.7458 44.2404 44.8771 44.0928 45.0079C43.9479 45.1384 43.7845 45.2689 43.6053 45.3996C43.5684 45.4264 43.5184 45.4245 43.4841 45.3953ZM32.3157 43.9165L32.8427 43.5169L33.3684 43.1176C33.7768 42.807 33.8677 42.4483 33.7307 41.9136L33.7267 41.8964L33.7202 41.8799C33.1167 40.3522 32.3592 38.8176 31.4738 37.2778H34.7096L37.2563 40.1357C37.284 40.1037 37.313 40.072 37.3433 40.0406L37.4579 39.9164L32.9138 34.8168C33.1536 34.4867 33.3855 34.1564 33.068 34.5974C33.2999 34.2742 33.5133 33.9692 33.6069 33.8326L33.2327 34.3635C33.6582 33.7502 33.7215 33.6652 33.6069 33.8326L33.6108 33.8274L38.1693 39.1451L38.3722 38.9255L36.9586 37.2778H37.0389C36.6727 35.4912 36.9414 33.2515 39.1483 32.4781L39.3472 32.4208L39.3406 32.4101C38.6634 31.3321 38.7214 30.0282 39.3063 28.9255L39.4658 28.668L39.3907 28.6472C37.8861 28.1641 37.2655 27.018 37.8215 25.3206L37.8584 25.2197L37.529 25.218C35.8321 25.1357 34.2985 24.443 33.3486 23.0205L31.0522 25.6992L31.1576 28.7652L31.0232 28.8909C31.0219 28.8932 30.9495 28.9635 30.4949 29.3955C30.603 29.2921 30.6596 29.2394 30.4594 29.429C30.4897 29.4005 30.5173 29.3736 30.4949 29.3955L30.4752 29.4139L30.4699 29.4184C30.4699 29.4191 30.4686 29.4197 30.4686 29.4205C30.466 29.4219 30.4646 29.4234 30.4633 29.4251C30.4633 29.425 30.4633 29.4248 30.4633 29.4245C30.4633 29.4257 30.462 29.4269 30.4607 29.428L30.462 29.4262L30.4594 29.429C30.4594 29.4287 30.4594 29.4283 30.4607 29.428L30.4541 29.4337C30.4541 29.4338 30.4541 29.4341 30.4541 29.4344L30.4554 29.4325C30.4515 29.436 30.4475 29.4399 30.4435 29.4439C30.35 29.5344 30.2235 29.6595 30.097 29.7867L29.8744 23.1172C29.8704 23.0089 29.9548 22.9173 30.0628 22.9128C30.1708 22.9081 30.2617 22.9922 30.267 23.1006L30.4765 29.4113L30.4541 29.4344C30.4567 29.4319 30.458 29.4294 30.4607 29.4269C30.4962 29.3928 30.5239 29.3655 30.4541 29.4333C30.6109 29.2818 30.5964 29.2955 30.4725 29.4162L30.7782 29.1207C30.7808 29.1185 30.7835 29.1161 30.7861 29.1137C30.7822 29.1167 30.7795 29.1198 30.7769 29.1227L30.5634 22.9535C30.5621 22.92 30.57 22.887 30.5832 22.8578C30.1537 22.2792 29.4357 21.8604 27.9153 21.8884C26.3936 21.8604 25.6769 22.2792 25.246 22.8578C25.2605 22.8872 25.2671 22.92 25.2658 22.9535L25.08 28.343C24.9549 28.2124 24.8284 28.0858 24.7006 27.9635L24.7849 25.5088L22.5741 22.9299C21.6282 24.4139 20.067 25.1339 18.3345 25.218L18.0038 25.2197L18.0406 25.3209C18.5979 27.0188 17.9748 28.1649 16.4715 28.6473L16.3977 28.668L16.5572 28.9255C17.1408 30.0282 17.2001 31.3321 16.5229 32.4101L16.515 32.4205L16.7166 32.4781C18.9326 33.2515 19.2857 35.4913 18.9234 37.2778H19.0406L17.4399 39.1454L17.6401 39.3667L21.9852 34.2987C22.2237 34.619 22.4622 34.9357 22.7019 35.2487L18.3424 40.1401L18.3437 40.1411C18.4161 40.2153 18.4807 40.2909 18.5373 40.3678L21.2909 37.2778H24.2935C23.9852 37.822 23.698 38.3727 23.4371 38.9272C22.7467 40.2614 22.2237 41.15 21.702 42.5669C21.644 42.7339 21.6203 42.8806 21.6216 43.0106C21.6242 43.1406 21.6519 43.2538 21.6954 43.3536C21.7837 43.5533 21.9378 43.6999 22.088 43.821C22.3792 44.0576 22.7915 44.3018 23.3923 43.937C24.6677 43.1298 25.4265 42.4329 26.5859 41.4791C26.8982 41.2416 27.2051 40.9942 27.4686 40.7747C28.628 41.9401 29.8138 42.9961 31.0312 43.9211L31.0443 43.9319L31.0601 43.9407C31.5371 44.2171 31.9073 44.227 32.3157 43.9165ZM31.2024 43.6955C27.8705 41.1624 24.7612 37.6283 21.7744 33.5343C19.8746 31.0822 18.984 28.7345 19.2277 26.3761C19.2382 26.2457 19.2554 26.1491 19.2817 26.0738C19.2448 25.9576 19.283 25.8259 19.3858 25.7481C19.4886 25.6704 19.6243 25.6695 19.727 25.7358C19.8061 25.7311 19.9036 25.7395 20.0327 25.7653C22.366 26.1663 24.3844 27.6589 26.2289 30.1529C29.3606 34.1366 31.9191 38.0887 33.4567 41.9839C33.5713 42.4314 33.4975 42.6636 33.1971 42.8918L32.7413 43.2377C32.7241 43.2615 32.7044 43.2833 32.6793 43.3019C32.6543 43.3206 32.628 43.3349 32.6003 43.3448L32.1458 43.6906C31.844 43.9187 31.6016 43.9267 31.2024 43.6955ZM22.2724 43.5917C22.0208 43.388 21.8087 43.1585 21.9786 42.6662C22.4925 41.2742 23.0023 40.409 23.7006 39.0578C23.947 38.5362 24.2157 38.0181 24.503 37.5058C24.6176 37.643 24.7335 37.7792 24.8481 37.9147C23.6334 40.0161 22.9892 41.6144 22.8311 42.136C22.723 42.4812 23.2751 41.955 24.0616 41.1169L25.7836 38.9867C25.8336 39.0429 25.8837 39.0989 25.9351 39.1546L24.2355 41.2572C23.5807 42.2025 23.1815 42.8521 23.4964 42.6747C24.2276 42.2908 25.4265 41.4738 26.8837 40.1746C27.0075 40.3051 27.1327 40.4345 27.2592 40.5627C26.9772 40.7991 26.6926 41.0278 26.4041 41.2478C25.2302 42.2137 24.4911 42.8931 23.2382 43.6863C22.7929 43.9562 22.5241 43.7951 22.2724 43.5917ZM31.047 42.8653C31.1431 42.7919 31.18 42.6682 31.1471 42.5581L32.4527 41.5668C32.5502 41.6281 32.678 41.6265 32.7755 41.5531C32.8994 41.4586 32.9244 41.2808 32.8295 41.1562C32.736 41.0316 32.5581 41.0071 32.433 41.1016C32.3921 41.1331 32.3618 41.1737 32.3434 41.2186L31.5068 41.3381L31.9336 40.3658C31.9824 40.36 32.0298 40.3418 32.0707 40.3102C32.1958 40.2158 32.2195 40.038 32.126 39.9133C32.0311 39.7888 31.8533 39.7643 31.7294 39.8589C31.7202 39.8653 31.7123 39.8721 31.7044 39.8792C30.8783 37.5085 28.5964 34.3801 26.2513 31.2187C25.7388 30.5415 25.059 30.5828 24.6084 30.9251L24.0181 31.3735L29.8546 39.0809L31.5384 40.2348L30.0378 41.3741L29.3817 39.4394L23.5451 31.7321L22.9549 32.1802C22.5043 32.5226 22.2803 33.1659 22.7942 33.843C25.2012 36.9577 27.5938 40.002 29.6504 41.4388C29.6412 41.4441 29.6333 41.4499 29.6241 41.4563C29.5002 41.5507 29.4752 41.7285 29.57 41.8532C29.6649 41.9778 29.8414 42.0022 29.9666 41.9078C30.0219 41.8654 30.0575 41.8062 30.072 41.7426L31.1827 41.5841L30.8414 42.3584C30.7927 42.3642 30.7466 42.3825 30.7044 42.4138C30.5806 42.5083 30.5555 42.6862 30.6504 42.8107C30.7453 42.9353 30.9218 42.9597 31.047 42.8653ZM31.0443 42.3871L31.4119 41.5512L32.3157 41.4222L31.0443 42.3871ZM8.31885 42.1595L14.2739 37.6999C14.2831 37.6924 14.2937 37.6856 14.3042 37.6794C14.3635 37.6461 14.4228 37.6159 14.4821 37.5889C13.4149 35.3074 12.9169 32.7235 13.1514 30.0351C13.3622 27.6129 14.1461 25.3773 15.3582 23.4507L9.22661 18.9869C7.23719 21.9959 5.94735 25.5295 5.61139 29.3746C5.20824 33.9849 6.23325 38.3925 8.31885 42.1595ZM50.1665 33.2774C50.625 28.0305 49.2337 23.0459 46.5354 18.9697L40.4592 23.5195C42.0902 26.1455 42.9163 29.3021 42.6264 32.6169C42.4749 34.3494 42.0309 35.9861 41.3471 37.4827C41.4301 37.5232 41.5105 37.5696 41.5856 37.6209L47.5644 41.9747C48.9781 39.3624 49.8911 36.4241 50.1665 33.2774ZM30.159 41.5303L31.7307 40.3372L31.2762 41.3709L30.159 41.5303ZM16.5967 37.2437C17.2831 35.1416 16.569 33.4014 14.1922 33.1009C14.3806 34.572 14.8036 35.9786 15.4241 37.2778H16.5888C16.5901 37.2665 16.5927 37.255 16.5967 37.2437ZM16.1527 32.7274C16.0117 32.6954 15.9524 32.5289 16.0394 32.4146C16.8865 31.3017 16.764 29.8231 15.93 28.6635C15.8483 28.5493 15.9089 28.3878 16.0446 28.3554C17.6546 27.9725 18.2804 26.9117 17.5387 25.0985C17.4833 24.9656 17.5848 24.8205 17.7284 24.8257C19.5966 24.8937 21.3291 24.2329 22.3041 22.6148L21.7309 21.9473C20.7731 23.7827 18.8008 24.4827 16.8865 24.2825L16.7455 24.2614L16.7561 24.2797C17.6467 26.0759 16.6125 27.9292 14.8273 28.2546L14.818 28.2557L14.8391 28.2809C15.934 29.6743 15.8523 31.4146 14.7759 32.567L14.573 32.7625L14.6138 32.7687C16.9485 33.2354 17.6652 35.1354 17.0011 37.2778H18.5189C18.9194 35.4409 18.5268 33.2705 16.1527 32.7274ZM41.2496 32.7686L41.2905 32.7625L41.0863 32.567C40.0112 31.4146 39.9295 29.6743 41.023 28.2809L41.0454 28.2557L41.0362 28.2546C39.2497 27.9292 38.2155 26.0759 39.1061 24.2797L39.1166 24.2614L38.9757 24.2826C37.0929 24.4793 35.1602 23.806 34.1839 22.0455L33.6174 22.7074C34.6003 24.2578 36.3025 24.8924 38.1351 24.8257C38.2787 24.8205 38.3788 24.9656 38.3248 25.0985C37.5844 26.9105 38.2049 27.9717 39.8175 28.3554C39.9546 28.3878 40.0152 28.5493 39.9335 28.6635C39.0995 29.8231 38.977 31.3017 39.8241 32.4146C39.9111 32.5289 39.8505 32.6954 39.7108 32.7274C37.3486 33.2676 37.0389 35.4216 37.4421 37.2778H38.8623C38.1957 35.1296 38.919 33.2342 41.2496 32.7686ZM41.5817 33.1129C39.2813 33.4446 38.5857 35.1619 39.2655 37.2437C39.2695 37.255 39.2721 37.2665 39.2734 37.2778H40.3551C40.9677 35.9931 41.3906 34.5937 41.5817 33.1129ZM30.769 36.095C33.1919 33.0705 34.9942 30.4545 36.0838 27.3125C36.0903 27.1594 36.1641 27.0686 35.8255 27.2824L34.0851 29.0714L29.7242 34.466C29.6807 34.4013 29.6372 34.3367 29.5938 34.2718L33.9112 28.9309L35.2959 26.8528C35.4342 26.4769 35.3605 26.5674 35.2129 26.6068C33.0403 27.9417 30.7097 30.164 28.516 32.7207C28.4106 32.5738 28.3039 32.4268 28.1972 32.2799C30.5305 29.5416 33.0706 27.3302 34.9072 26.1769C35.8519 25.5612 36.3999 25.5856 36.6542 25.7915L36.6608 25.7972C36.9151 26.0029 37.0534 26.5349 36.649 27.5876C35.7992 29.9209 33.7874 33.4425 31.1089 36.6551C30.9969 36.4686 30.8849 36.2819 30.769 36.095ZM47.2364 34.0233L46.7634 33.9695C46.737 33.9664 46.7173 33.9419 46.7199 33.9147L46.7489 33.659C46.7528 33.6319 46.7766 33.6124 46.8042 33.6154L46.9913 33.6367L47.0624 33.0051L46.3734 32.9266L46.3286 33.3217L46.4379 33.3341C46.4643 33.3371 46.4841 33.3616 46.4814 33.3888L46.4551 33.6255C46.4511 33.6526 46.4274 33.672 46.3997 33.669L45.8477 33.6061C45.82 33.603 45.8003 33.5785 45.8042 33.5513L45.8306 33.3147C45.8332 33.2875 45.8583 33.268 45.8859 33.2712L45.994 33.2836L46.0387 32.8886L45.2891 32.8033L45.2087 33.5085L45.4169 33.5322C45.4446 33.5352 45.4643 33.5598 45.4604 33.5869L45.4314 33.8443C45.4287 33.8715 45.4037 33.8909 45.3774 33.8878L44.8649 33.8295C44.8372 33.8265 44.8174 33.802 44.8214 33.7748L45.0243 31.9841C45.0269 31.957 45.0519 31.9376 45.0783 31.9406L45.3154 31.9675C45.3418 31.9706 45.3616 31.9951 45.3589 32.0223L45.3378 32.2097L47.1296 32.4136L47.1507 32.2261C47.1547 32.1989 47.1784 32.1795 47.2061 32.1825L47.4419 32.2094C47.4695 32.2125 47.488 32.237 47.4854 32.2642L47.2904 33.9798C47.2877 34.0069 47.264 34.0263 47.2364 34.0233ZM10.9038 33.3949L10.8945 33.2886L8.69433 32.6168C8.67457 32.6108 8.66007 32.5937 8.65876 32.5735L8.62978 32.2015C8.62714 32.1812 8.63899 32.1621 8.65612 32.1531L10.722 31.138L10.714 31.0332C10.7114 31.0059 10.7312 30.982 10.7589 30.9799L10.996 30.9608C11.0237 30.9586 11.0474 30.9789 11.0487 31.0061L11.1198 31.8922C11.1225 31.9195 11.1027 31.9434 11.075 31.9455L10.8379 31.9646C10.8102 31.9669 10.7865 31.9466 10.7852 31.9194L10.772 31.7542L10.4308 31.9223L10.5019 32.8071L10.8656 32.9179L10.8524 32.7526C10.8498 32.7253 10.8695 32.7015 10.8972 32.6993L11.1343 32.6802C11.162 32.678 11.1857 32.6983 11.187 32.7255L11.2397 33.3678C11.241 33.3952 11.2213 33.419 11.1936 33.4211L10.9565 33.4403C10.9301 33.4425 10.9051 33.4222 10.9038 33.3949ZM10.1462 32.6984L10.0975 32.0874L9.35176 32.4558L10.1462 32.6984ZM14.3991 28.3684C14.2739 28.9392 14.1843 29.5241 14.133 30.1211C14.0592 30.9661 14.0631 31.8001 14.1382 32.616C15.4399 31.5987 15.6336 29.7792 14.3991 28.3684ZM41.3972 28.4468C40.3498 29.7094 40.4196 31.2754 41.6449 32.5289C41.6989 30.3361 41.5948 29.3757 41.3972 28.4468ZM21.7836 31.8842C21.8811 31.8108 21.9167 31.687 21.8838 31.5768L24.2421 29.7868C24.3383 29.8483 24.4674 29.8467 24.5649 29.7732C24.6887 29.6788 24.7138 29.501 24.6189 29.3763C24.5254 29.2517 24.3475 29.2273 24.2223 29.3217C24.1657 29.3647 24.1301 29.4248 24.1169 29.4893L22.5926 29.719L23.0234 28.7599C23.0722 28.7547 23.1209 28.7362 23.1631 28.7041C23.2882 28.6096 23.3119 28.4318 23.2171 28.3072C23.1235 28.1826 22.9457 28.1582 22.8218 28.2526C22.7797 28.284 22.7494 28.3246 22.7309 28.3695L21.6809 28.5195L22.0208 27.745C22.0696 27.7392 22.117 27.7209 22.1578 27.6895C22.283 27.5951 22.3067 27.4173 22.2132 27.2926C22.1183 27.168 21.9404 27.1435 21.8166 27.238C21.7191 27.3115 21.6835 27.4353 21.7165 27.5453L20.4095 28.5368C20.3133 28.4753 20.1842 28.4769 20.088 28.5502C19.9629 28.6447 19.9392 28.8225 20.0327 28.9471C20.1276 29.0718 20.3054 29.0962 20.4293 29.0017C20.4701 28.9705 20.5004 28.9298 20.5202 28.8853L21.3568 28.7656L20.9036 29.7932C20.839 29.7892 20.7731 29.8077 20.7165 29.85C20.5926 29.9446 20.5676 30.1224 20.6625 30.2469C20.7573 30.3716 20.9339 30.396 21.059 30.3015C21.1157 30.2588 21.1513 30.1988 21.1644 30.1343L22.2632 29.9686L21.6308 31.3759C21.5663 31.3716 21.4978 31.3899 21.4424 31.4328C21.3173 31.5272 21.2935 31.705 21.3871 31.8297C21.4819 31.9542 21.6598 31.9787 21.7836 31.8842ZM45.0519 31.851L45.0401 30.8785C45.0401 30.8512 45.0625 30.8288 45.0888 30.8285L45.3273 30.8255C45.355 30.8251 45.3774 30.847 45.3774 30.8743L45.3787 31.063L46.1626 31.0533L46.1521 30.1901L45.3681 30.1997L45.3708 30.3883C45.3708 30.4156 45.3497 30.4381 45.322 30.4383L45.0849 30.4414C45.0572 30.4418 45.0348 30.4199 45.0348 30.3926L45.023 29.4199C45.0216 29.3926 45.044 29.3701 45.0717 29.3699L45.3089 29.367C45.3365 29.3666 45.3589 29.3885 45.3589 29.4158L45.3616 29.6044L47.1652 29.5822L47.1626 29.3936C47.1626 29.3663 47.185 29.3439 47.2113 29.3436L47.4498 29.3406C47.4775 29.3402 47.4999 29.3621 47.4999 29.3894L47.5117 30.3621C47.5117 30.3894 47.4906 30.4118 47.463 30.4121L47.2245 30.415C47.1981 30.4154 47.1757 30.3935 47.1757 30.3662L47.1731 30.1775L46.4893 30.186L46.4999 31.0492L47.1837 31.0407L47.181 30.8521C47.181 30.8248 47.2021 30.8024 47.2298 30.8021L47.4682 30.7992C47.4946 30.7988 47.517 30.8207 47.517 30.848L47.5302 31.8206C47.5302 31.8479 47.5078 31.8703 47.4814 31.8706L47.2429 31.8735C47.2153 31.8739 47.1929 31.852 47.1929 31.8247L47.1902 31.636L45.3866 31.6582L45.3892 31.847C45.3892 31.8743 45.3668 31.8967 45.3405 31.897L45.102 31.8999C45.0757 31.9002 45.0533 31.8784 45.0519 31.851ZM28.3553 31.6465L28.1919 22.5633C28.1893 22.4549 28.2763 22.365 28.3843 22.3626C28.4923 22.3601 28.5819 22.4461 28.5846 22.5546L28.74 31.2147C28.6109 31.3572 28.4831 31.5011 28.3553 31.6465ZM21.8614 31.3452L22.4964 29.9336L24.0247 29.7031L21.8614 31.3452ZM27.0642 30.7666L27.2117 22.5546C27.2144 22.4461 27.304 22.3601 27.412 22.3626C27.52 22.365 27.6057 22.4549 27.6044 22.5633L27.4476 31.2703C27.3211 31.1025 27.1933 30.9347 27.0642 30.7666ZM9.13701 30.7705L8.6245 30.7339C8.59683 30.732 8.57707 30.7082 8.57839 30.681L8.73648 28.4629C8.7378 28.4356 8.76152 28.4151 8.78919 28.417L9.3017 28.4535C9.32936 28.4555 9.35044 28.4792 9.3478 28.5064L9.32936 28.7632C9.32804 28.7905 9.30434 28.811 9.27667 28.8091L9.06981 28.7944L9.03424 29.2992L10.8142 29.4261L10.8273 29.2377C10.8287 29.2104 10.8537 29.19 10.8801 29.1918L11.1172 29.2088C11.1449 29.2108 11.1646 29.2345 11.1633 29.2617L11.0948 30.2327C11.0922 30.26 11.0685 30.2804 11.0421 30.2786L10.8036 30.2617C10.7773 30.2597 10.7562 30.236 10.7589 30.2088L10.772 30.0206L8.99209 29.8938L8.95519 30.3986L9.16337 30.4133C9.18972 30.4152 9.21079 30.439 9.20816 30.4662L9.18971 30.7246C9.18839 30.7519 9.16468 30.7723 9.13701 30.7705ZM29.3079 30.5991L29.0799 22.6839C29.076 22.5756 29.1616 22.4845 29.2697 22.4805C29.3777 22.4765 29.4686 22.5614 29.4726 22.6697L29.6899 30.2006C29.5621 30.3317 29.4357 30.4646 29.3079 30.5991ZM26.4542 29.981C26.3448 29.8341 26.2355 29.6904 26.1261 29.5499L26.3237 22.6697C26.3277 22.5614 26.4186 22.4765 26.5266 22.4805C26.6347 22.4845 26.7203 22.5756 26.7164 22.6839L26.5042 30.0444C26.4871 30.0232 26.47 30.0021 26.4542 29.981ZM21.113 29.9046C21.1038 29.8932 21.0946 29.8826 21.0854 29.8728L21.5873 28.7328L22.7243 28.5703C22.7336 28.5981 22.7481 28.6249 22.7665 28.6495C22.785 28.6735 22.806 28.6937 22.8297 28.7101L22.3607 29.754L21.1355 29.9387C21.1289 29.9269 21.121 29.9156 21.113 29.9046ZM30.4541 29.4344L30.4554 29.4325C30.458 29.4303 30.4594 29.4286 30.4541 29.4344ZM30.4541 29.4344V29.4337C30.4646 29.423 30.466 29.4216 30.4541 29.4333C30.4633 29.4253 30.462 29.4261 30.4607 29.4269L30.4541 29.4344ZM30.4686 29.4205V29.4203L30.4646 29.424L30.4659 29.4224C30.4646 29.4232 30.4646 29.4238 30.4633 29.4245C30.4646 29.4232 30.4673 29.4217 30.4686 29.4205ZM30.4659 29.4224L30.4686 29.4203L30.4725 29.4162C30.4699 29.4183 30.4686 29.4203 30.4659 29.4224ZM30.4686 29.4203L30.4699 29.4184C30.4765 29.4123 30.4791 29.4092 30.4752 29.4139C30.4738 29.4154 30.4712 29.4174 30.4686 29.4203ZM30.7782 29.1207L31.0232 28.8909C31.0759 28.8392 30.9745 28.933 30.7861 29.1137C30.91 28.9958 31.0246 28.8882 30.7782 29.1207ZM46.8464 29.0321L46.8055 28.7777C46.8016 28.7508 46.82 28.7254 46.8464 28.7212L47.0519 28.6887L46.9729 28.1888L45.21 28.4675L45.239 28.654C45.2443 28.6809 45.2258 28.7064 45.1982 28.7106L44.9637 28.7478C44.9373 28.752 44.911 28.7337 44.907 28.7066L44.7555 27.745C44.7516 27.7181 44.77 27.6927 44.7964 27.6885L45.0309 27.6513C45.0585 27.647 45.0836 27.6654 45.0875 27.6924L45.1165 27.8788L46.8806 27.6001L46.8016 27.1L46.5961 27.1326C46.5697 27.1368 46.5434 27.1184 46.5394 27.0914L46.4985 26.8355C46.4946 26.8085 46.5131 26.7832 46.5407 26.779L47.048 26.6986C47.0756 26.6944 47.1007 26.7129 47.1046 26.7398L47.4511 28.9363C47.4551 28.9632 47.4366 28.9887 47.4103 28.9929L46.9017 29.0732C46.8754 29.0774 46.8503 29.059 46.8464 29.0321ZM25.3448 28.6258L25.5293 23.1006C25.5346 22.9922 25.6255 22.9081 25.7335 22.9128C25.8415 22.9173 25.9259 23.0089 25.9219 23.1172L25.7243 29.0567C25.5991 28.9089 25.4726 28.7652 25.3448 28.6258ZM20.5465 28.6813L21.8179 27.7163L21.4503 28.5524L20.5465 28.6813ZM16.2054 24.1139C16.183 24.0795 16.1724 24.0424 16.1724 24.0064C15.4333 25.1904 14.8655 26.4985 14.5098 27.8985C16.3055 27.741 17.3542 25.8592 16.2054 24.1139ZM39.6568 24.1164C38.5264 25.8309 39.5237 27.6801 41.2668 27.8895C40.8755 26.3635 40.2286 24.9317 39.6568 24.1164ZM30.9943 24.0109L32.8098 21.9735C32.4277 20.983 32.2617 19.7498 32.3882 18.2525C32.3302 18.2326 32.2722 18.2129 32.2129 18.1937L32.2288 21.0455C32.2288 21.051 32.2288 21.0568 32.2274 21.0625C32.1668 21.8113 31.7729 22.3045 31.3315 22.7113L30.96 23.0307L30.9943 24.0109ZM38.9309 23.8901C38.6436 23.8082 38.3709 23.633 38.1311 23.3553L36.1957 21.223C35.9033 20.9258 35.7491 20.6016 35.6977 20.2807L34.4606 21.7226C35.3288 23.436 37.1417 24.079 38.9309 23.8901ZM21.4516 21.621L20.3357 20.3195C20.2896 20.6345 20.1355 20.9419 19.8641 21.2225L17.9102 23.3393C17.6572 23.6376 17.3687 23.817 17.0736 23.9031C18.8483 24.0468 20.6256 23.3659 21.4516 21.621ZM24.8429 23.8275L24.8692 23.0307L24.4977 22.7113C24.0563 22.3045 23.6637 21.8113 23.6018 21.0625C23.6018 21.0568 23.6018 21.051 23.6018 21.0455L23.6163 18.1768C23.5689 18.1925 23.5201 18.2084 23.4727 18.2247C23.5978 19.6805 23.449 20.8875 23.0946 21.8654L24.8429 23.8275ZM17.4675 22.9453L19.4332 20.8143C19.7415 20.4969 19.8258 20.1545 19.706 19.7961L19.5241 19.441L13.8352 13.07C13.2529 12.4577 12.7193 12.3911 12.1211 13.0212L9.01317 16.4584C8.41239 17.0949 8.49012 17.7677 9.07509 18.1441L9.08826 18.1537L15.9616 23.1568C16.403 23.4571 17.0011 23.4928 17.4675 22.9453ZM39.5646 23.3229L39.9335 23.1721L46.7686 18.053C47.4287 17.5258 47.542 16.9999 46.9676 16.3477L43.8174 12.9488C43.2364 12.2937 42.5606 12.313 42.135 12.8629L42.1245 12.876L36.5475 19.2956C36.2102 19.7093 36.122 20.3021 36.6266 20.815L38.5751 22.9616C38.865 23.2967 39.1983 23.4107 39.5646 23.3229ZM33.1075 21.6388L33.7412 20.9285C33.5726 20.2936 33.5028 19.5632 33.5541 18.7317C33.5541 18.7264 33.5555 18.721 33.5555 18.7157C33.2999 18.6001 33.039 18.492 32.7742 18.3918C32.6754 19.6853 32.8058 20.7608 33.1075 21.6388ZM23.0867 18.3616C22.8205 18.4608 22.5583 18.568 22.2988 18.683C22.3041 18.6985 22.308 18.7148 22.308 18.7317C22.3568 19.5117 22.2988 20.2025 22.1526 20.8088L22.7929 21.5271C23.0708 20.663 23.1855 19.6139 23.0867 18.3616ZM41.2905 21.0496L40.3314 19.9042C40.2958 19.8623 40.3011 19.7999 40.3432 19.7648L40.6489 19.5073C40.691 19.4722 40.753 19.4776 40.7885 19.5195L40.9532 19.7152L41.2391 19.1826L40.2945 18.0554L39.7214 18.2467L39.886 18.4426C39.9216 18.4845 39.915 18.5469 39.8742 18.582L39.5672 18.8395C39.525 18.8746 39.4631 18.8692 39.4276 18.8273L38.7319 17.9971C38.6977 17.9552 38.7029 17.8928 38.7451 17.8577L39.0508 17.6002C39.0929 17.5651 39.1548 17.5705 39.1904 17.6125L39.2984 17.7417L42.9598 16.5196C42.998 16.5068 43.0401 16.5188 43.0665 16.5498L43.4696 17.0305C43.496 17.0616 43.4999 17.1056 43.4802 17.1413L41.6423 20.5375L41.749 20.6648C41.7832 20.7066 41.778 20.7691 41.7358 20.8042L41.4301 21.0617C41.388 21.0968 41.3261 21.0914 41.2905 21.0496ZM27.9153 19.3593C29.7189 19.3593 31.2037 19.8924 31.8348 20.8488L31.8164 17.3584C31.7821 16.5746 30.7808 15.545 27.9258 15.545L27.8692 15.5458C25.0142 15.5458 24.0484 16.573 24.0129 17.3584L23.9944 20.8489C24.6255 19.8925 26.1103 19.3593 27.9153 19.3593ZM34.0614 20.5681L35.0245 19.4878C34.674 19.2754 34.313 19.0781 33.9415 18.8967C33.9125 19.5154 33.9573 20.0716 34.0614 20.5681ZM13.2278 19.7587C12.743 19.2738 12.4913 18.7557 12.4913 18.2057C12.4913 17.6557 12.7443 17.1369 13.2292 16.6509C13.378 16.5022 13.5414 16.3596 13.7193 16.2232C13.8971 16.0868 14.0895 15.956 14.2976 15.8305C14.3372 15.8071 14.3859 15.8133 14.4188 15.8453L15.0104 16.4385C15.0499 16.4772 15.0499 16.5398 15.0104 16.5785L14.7047 16.8846C14.6692 16.9204 14.6125 16.9234 14.573 16.8917L14.3069 16.6767L13.9696 16.827C13.8537 16.8953 13.7509 16.9758 13.6587 17.068C13.411 17.315 13.3174 17.6011 13.3714 17.9356C13.4268 18.2748 13.6283 18.627 13.9933 18.9921C14.3437 19.3432 14.6982 19.5268 15.0578 19.5586C15.4136 19.5904 15.7311 19.4696 16.0143 19.1859C16.2857 18.9148 16.4834 18.5838 16.6072 18.1912C16.6296 18.1206 16.7192 18.0987 16.7719 18.1511L17.1079 18.4878C17.1355 18.5159 17.1448 18.5578 17.1289 18.5947C16.9603 19.0175 16.7021 19.4011 16.3582 19.7453C15.8721 20.2318 15.349 20.4851 14.7904 20.4879C14.2318 20.4907 13.71 20.2418 13.2278 19.7587ZM21.9194 18.8587C21.5715 19.0263 21.2316 19.208 20.8996 19.4032L21.8258 20.4425C21.9141 19.9681 21.9497 19.441 21.9194 18.8587ZM35.6911 18.7399L40.7793 13.0295C37.6555 10.8173 33.9231 9.3795 29.8375 9.02163C24.42 8.54716 19.2817 10.0516 15.1369 12.9365L20.2316 18.6539C21.2935 18.0098 22.4398 17.4964 23.6453 17.1342C23.8429 16.0714 25.1723 15.1528 27.8665 15.1528L27.9232 15.152C30.6319 15.152 31.9969 16.0797 32.1866 17.1508C33.4369 17.5296 34.6121 18.068 35.6911 18.7399ZM25.362 18.5662C25.3119 18.47 25.3501 18.3513 25.4463 18.3012C26.0629 17.9797 26.943 17.8227 27.8362 17.8205C28.7321 17.8184 29.6675 17.9719 30.3974 18.2959C30.4976 18.3397 30.541 18.4559 30.4976 18.555C30.4541 18.6541 30.3382 18.6989 30.2393 18.6551C29.5714 18.3592 28.6939 18.2112 27.8376 18.2133C26.9785 18.2154 26.167 18.3683 25.6268 18.6497C25.5306 18.6997 25.412 18.6623 25.362 18.5662ZM41.5527 18.6005L42.1877 17.4238L40.9216 17.8463L41.5527 18.6005ZM27.8679 17.0593C27.5833 17.0597 27.3053 17.0731 27.0523 17.0991C26.7994 17.1251 26.5754 17.1635 26.3975 17.2123C26.2934 17.2409 26.1854 17.1793 26.1564 17.0747C26.1274 16.9702 26.1894 16.8621 26.2934 16.8333C26.499 16.7771 26.7453 16.7357 27.0128 16.7083C27.2802 16.6808 27.5714 16.6668 27.8679 16.6666C28.4568 16.6658 29.072 16.7189 29.5542 16.8316C29.6596 16.8561 29.7242 16.9618 29.7005 17.0676C29.6754 17.1731 29.5701 17.2387 29.4647 17.214C29.022 17.1104 28.4383 17.0586 27.8679 17.0593ZM19.0406 16.126C18.7231 16.0368 18.4675 15.811 18.2712 15.4574C18.0749 15.1023 18.0169 14.7675 18.1052 14.4561C18.1948 14.1448 18.4214 13.8914 18.7771 13.694C18.8865 13.6335 19.0024 13.579 19.1263 13.5303C19.2501 13.4817 19.3805 13.4385 19.5202 13.4009C19.5426 13.3951 19.565 13.4049 19.5768 13.4248L19.818 13.861C19.8311 13.8849 19.8219 13.915 19.7982 13.9282L19.5742 14.0531C19.5518 14.0654 19.5241 14.059 19.5096 14.0385L19.3885 13.8658L19.2857 13.8745C19.2435 13.8804 19.204 13.8885 19.1645 13.8986C19.0867 13.9191 19.0143 13.9484 18.9458 13.9862C18.7613 14.0886 18.6585 14.2393 18.6348 14.4424C18.6111 14.6479 18.6691 14.8842 18.818 15.1539C18.9616 15.4133 19.1368 15.5783 19.3384 15.6566C19.54 15.7342 19.7442 15.7166 19.955 15.5997C20.1552 15.4884 20.3239 15.3305 20.4596 15.1252C20.4793 15.0944 20.5254 15.0962 20.5439 15.1287L20.6809 15.3764C20.6901 15.3937 20.6888 15.415 20.6769 15.4307C20.5109 15.6435 20.3028 15.8197 20.0511 15.9594C19.6954 16.157 19.3568 16.2153 19.0406 16.126ZM36.0561 15.951C35.9665 15.9019 35.8756 15.8424 35.782 15.7729C35.6885 15.7035 35.5937 15.6241 35.4962 15.5352C35.4803 15.5199 35.4764 15.495 35.4869 15.4751L35.7399 15.0118C35.7531 14.9878 35.7821 14.979 35.8071 14.992L36.0508 15.1255C36.0745 15.1387 36.0838 15.1688 36.0706 15.1926L35.9652 15.3847L36.0192 15.469C36.0429 15.5016 36.0653 15.5308 36.089 15.5568C36.1365 15.6091 36.1839 15.6476 36.2313 15.6736C36.3275 15.7262 36.4144 15.7402 36.4961 15.7215C36.5752 15.7029 36.6371 15.6555 36.6819 15.5745C36.7254 15.4937 36.7399 15.4222 36.732 15.3592C36.7214 15.2937 36.6793 15.1991 36.6002 15.0731L36.5014 14.9206C36.3683 14.7105 36.2853 14.5295 36.2563 14.3789C36.2274 14.2272 36.2498 14.083 36.3235 13.9486C36.4237 13.7651 36.5725 13.6497 36.7715 13.6057C36.9678 13.5617 37.1694 13.598 37.3736 13.7096C37.479 13.7669 37.5778 13.8307 37.674 13.9014C37.7688 13.9722 37.8597 14.0503 37.9454 14.1358C37.9599 14.1514 37.9638 14.1752 37.9533 14.1945L37.7227 14.6182C37.7095 14.6422 37.6792 14.651 37.6555 14.638L37.4118 14.5045C37.3868 14.4913 37.3788 14.4612 37.392 14.4373L37.4869 14.2624L37.4421 14.1934C37.4223 14.1656 37.4026 14.1403 37.3815 14.1176C37.3393 14.0724 37.2932 14.037 37.2458 14.0109C37.1773 13.9736 37.1074 13.9662 37.0337 13.9883C36.9599 14.0104 36.9045 14.0551 36.8663 14.1249C36.836 14.1812 36.8281 14.2366 36.84 14.2937C36.8532 14.3552 36.894 14.4464 36.9704 14.5711L37.0666 14.73C37.2076 14.959 37.2932 15.1474 37.3209 15.293C37.3486 15.4422 37.3235 15.5877 37.2471 15.7279C37.1364 15.9313 36.9691 16.055 36.7491 16.0947C36.5304 16.1341 36.2998 16.0838 36.0561 15.951ZM20.7665 15.4272L20.6796 15.2052C20.6704 15.1797 20.6822 15.1511 20.7086 15.1412L20.8074 15.1025L20.8219 12.7988C20.8219 12.7785 20.8337 12.7604 20.8535 12.753L21.2 12.6181C21.2198 12.6107 21.2408 12.6157 21.254 12.6306L22.8166 14.3219L22.9141 14.2839C22.9404 14.274 22.9681 14.2867 22.9786 14.3122L23.0643 14.5342C23.0748 14.5596 23.0616 14.5882 23.0366 14.5981L22.2079 14.9197C22.1828 14.9296 22.1539 14.917 22.1446 14.8915L22.0577 14.6695C22.0485 14.644 22.0603 14.6154 22.0867 14.6055L22.2408 14.5456L21.9826 14.267L21.1565 14.5882L21.1539 14.968L21.308 14.908C21.3331 14.8981 21.3621 14.9108 21.3726 14.9362L21.4582 15.1583C21.4675 15.1838 21.4556 15.2124 21.4306 15.2223L20.8298 15.4554C20.8048 15.4653 20.7758 15.4526 20.7665 15.4272ZM34.5344 15.2264C34.1576 15.0752 33.898 14.8502 33.7676 14.5479C33.6359 14.2455 33.649 13.9046 33.7992 13.5289C33.9494 13.1519 34.1707 12.895 34.4685 12.7673C34.7663 12.6395 35.1048 12.6554 35.483 12.8063C35.5989 12.8526 35.7148 12.9081 35.8295 12.9732C35.9454 13.0383 36.0627 13.113 36.1786 13.1972C36.1971 13.2105 36.205 13.2346 36.1957 13.2557L36.0113 13.719C36.0021 13.7443 35.9731 13.7567 35.9467 13.7465L35.7083 13.651C35.6846 13.6417 35.6727 13.6161 35.6793 13.5918L35.7359 13.3884L35.6648 13.3144C35.6332 13.2859 35.6015 13.2598 35.5699 13.2361C35.5041 13.1884 35.4356 13.1503 35.3631 13.1213C35.1668 13.0431 34.9863 13.0592 34.8137 13.1689C34.6398 13.2799 34.4935 13.4749 34.3789 13.7612C34.2696 14.0367 34.2511 14.2761 34.3196 14.4827C34.3868 14.688 34.5291 14.835 34.7531 14.9245C34.9652 15.0096 35.1944 15.0404 35.4395 15.0159C35.4764 15.0122 35.5041 15.0491 35.4896 15.0836L35.3855 15.3466C35.3776 15.3649 35.3604 15.3772 35.3407 15.3776C35.0706 15.384 34.8018 15.3333 34.5344 15.2264ZM33.2195 14.6753L32.2867 14.4048C32.2735 14.4009 32.263 14.3922 32.2577 14.3811L32.2551 14.3676L32.2235 14.3738L30.4488 14.0208C30.4225 14.0155 30.404 13.9894 30.4106 13.9626L30.4567 13.7291C30.462 13.7024 30.487 13.6849 30.5147 13.6903L30.6991 13.727L31.0509 11.9554L30.8652 11.9186C30.8388 11.9133 30.8217 11.8872 30.8269 11.8604L30.8731 11.6268C30.8783 11.6 30.9047 11.5826 30.931 11.588L31.8849 11.7776C31.9112 11.7828 31.9284 11.809 31.9231 11.8357L31.877 12.0692C31.8717 12.096 31.8454 12.1134 31.819 12.108L31.6332 12.0713L31.2867 13.8241L31.9903 13.9642L32.0311 13.7585C32.0364 13.7318 32.0627 13.7144 32.0891 13.7198L32.3434 13.7702C32.3697 13.7754 32.3882 13.8015 32.3829 13.8283L32.3276 14.1043L32.3434 14.0851C32.3539 14.0791 32.3671 14.0772 32.3803 14.0809L32.5621 14.1334L33.0627 12.3985L32.8822 12.3461C32.8559 12.3384 32.8414 12.311 32.848 12.2847L32.9152 12.056C32.9218 12.0298 32.9494 12.0147 32.9758 12.0223L33.9086 12.2928C33.9349 12.3004 33.9507 12.3279 33.9428 12.3541L33.8769 12.5829C33.869 12.6091 33.8414 12.6241 33.815 12.6166L33.6345 12.5641L33.1326 14.2991L33.3131 14.3515C33.3394 14.3591 33.3552 14.3866 33.3473 14.4128L33.2814 14.6415C33.2735 14.6678 33.2459 14.6828 33.2195 14.6753ZM23.6137 14.4152L23.5583 14.1836C23.553 14.157 23.5689 14.1303 23.5952 14.1241L23.7783 14.0805L23.3673 12.3417L22.8759 12.4583L22.9233 12.6607C22.9299 12.6872 22.9127 12.714 22.8864 12.7202L22.6348 12.7799C22.6084 12.7863 22.5821 12.7698 22.5755 12.7433L22.4569 12.2421C22.4503 12.2156 22.4674 12.1889 22.4938 12.1827L24.6545 11.6702C24.6808 11.6639 24.7085 11.6804 24.7138 11.7069L24.8323 12.2078C24.8389 12.2344 24.8231 12.2611 24.7968 12.2673L24.5464 12.3267C24.5188 12.333 24.4924 12.3165 24.4872 12.29L24.4384 12.0877L23.947 12.2043L24.358 13.9431L24.5412 13.8997C24.5688 13.8934 24.5952 13.9098 24.6005 13.9364L24.6558 14.168C24.6624 14.1945 24.6453 14.2213 24.6189 14.2275L23.6729 14.4519C23.6466 14.4582 23.6202 14.4417 23.6137 14.4152ZM21.1578 14.2153L21.7283 13.9936L21.1631 13.3835L21.1578 14.2153ZM25.2684 14.0214L25.246 13.7844C25.2434 13.7572 25.2632 13.7331 25.2908 13.7305L25.4779 13.7126L25.3079 11.9145L25.1209 11.9323C25.0932 11.9348 25.0695 11.9149 25.0669 11.8877L25.0445 11.6505C25.0418 11.6234 25.0616 11.5992 25.0892 11.5966L26.0563 11.5052C26.084 11.5027 26.1077 11.5226 26.1103 11.5498L26.1327 11.7869C26.1353 11.8141 26.1156 11.8382 26.0879 11.8409L25.9008 11.8586L25.9641 12.5403L26.8231 12.459L26.7585 11.7774L26.5714 11.7951C26.5438 11.7976 26.5201 11.7777 26.5174 11.7505L26.495 11.5135C26.4924 11.4863 26.5121 11.4622 26.5398 11.4595L27.5069 11.3681C27.5345 11.3656 27.5582 11.3855 27.5609 11.4127L27.5833 11.6497C27.5859 11.6769 27.5661 11.7011 27.5385 11.7037L27.3501 11.7215L27.52 13.5197L27.7084 13.502C27.7348 13.4995 27.7585 13.5194 27.7624 13.5466L27.7835 13.7836C27.7862 13.8108 27.7664 13.8349 27.7401 13.8376L26.773 13.929C26.7453 13.9315 26.7216 13.9116 26.719 13.8844L26.6966 13.6474C26.694 13.6202 26.7137 13.596 26.7401 13.5934L26.9285 13.5756L26.8547 12.7947L25.9957 12.8758L26.0695 13.6568L26.2579 13.639C26.2842 13.6365 26.3079 13.6565 26.3119 13.6836L26.3343 13.9207C26.3356 13.9478 26.3158 13.972 26.2895 13.9746L25.3224 14.066C25.2948 14.0685 25.2711 14.0486 25.2684 14.0214ZM28.2051 13.5693C27.9956 13.3222 27.9047 12.9977 27.9271 12.6017C27.9508 12.2057 28.0787 11.8939 28.3158 11.6728C28.553 11.4515 28.8639 11.3541 29.2446 11.3762C29.6241 11.3983 29.9218 11.5309 30.1326 11.7784C30.3434 12.0254 30.4343 12.3499 30.4119 12.7459C30.3895 13.1419 30.2604 13.4537 30.0233 13.6748C29.7848 13.896 29.4739 13.9935 29.0931 13.9713C28.7137 13.9493 28.4159 13.8166 28.2051 13.5693ZM29.5727 13.4057C29.6978 13.2382 29.7703 13.0076 29.7874 12.7098C29.8046 12.4106 29.7584 12.1729 29.6544 11.9927C29.5503 11.8142 29.408 11.7235 29.2249 11.7128C29.0417 11.7021 28.8902 11.7759 28.7664 11.9411C28.6425 12.1081 28.5688 12.339 28.5516 12.6379C28.5345 12.937 28.5806 13.1747 28.6847 13.3549C28.7888 13.5335 28.9311 13.6241 29.1129 13.6348C29.2973 13.6455 29.4488 13.5715 29.5727 13.4057Z" fill="#013354"/>
</svg>
