<svg width="202" height="216" viewBox="0 0 202 216" fill="none" xmlns="http://www.w3.org/2000/svg">
<path fill-rule="evenodd" clip-rule="evenodd" d="M16.9037 105.458C20.9433 59.2943 61.719 25.1054 107.922 29.1441C154.12 33.1829 188.338 73.9273 184.293 120.091C180.254 166.254 139.478 200.443 93.2751 196.405C47.0768 192.366 12.8594 151.621 16.9037 105.458Z" fill="#263696"/>
<path fill-rule="evenodd" clip-rule="evenodd" d="M20.2403 105.748C24.123 61.4252 63.2735 28.5997 107.628 32.4774C151.987 36.3551 184.84 75.475 180.958 119.798C177.08 164.121 137.929 196.947 93.5702 193.069C49.2111 189.191 16.3576 150.071 20.2403 105.748Z" fill="#D81D17"/>
<path d="M37.7157 118.241L39.3933 118.752L39.322 117.895L40.1775 117.827L40.3628 120.139L39.5074 120.208L39.4694 119.704L31.414 117.251L31.3047 115.911L38.861 112.204L38.823 111.706L39.6784 111.637L39.9351 114.827L39.0796 114.896L39.0131 114.04L37.4401 114.815L37.7157 118.241ZM36.7985 117.961L36.5799 115.24L33.2484 116.881L36.7985 117.961Z" fill="white" stroke="white" stroke-width="0.354691" stroke-miterlimit="79.8403" stroke-linecap="round" stroke-linejoin="round"/>
<path d="M32.2694 107.427L32.1125 109.6L33.0393 109.665L32.9727 110.596L31.124 110.464L31.6895 102.479L33.543 102.61L33.4764 103.535L32.5497 103.469L32.3977 105.642L39.1746 106.124L39.2364 105.268L40.0918 105.329L39.8399 108.825L38.9845 108.764L39.0463 107.909L32.2694 107.427Z" fill="white" stroke="white" stroke-width="0.354691" stroke-miterlimit="79.8403" stroke-linecap="round" stroke-linejoin="round"/>
<path d="M74.4433 55.4413C73.8635 56.1869 73.1316 56.8061 72.2429 57.2985C70.9883 57.9933 69.8192 58.188 68.7309 57.8826C67.6426 57.5773 66.7539 56.8033 66.0648 55.5605C65.3709 54.3107 65.1761 53.1544 65.485 52.0912C65.7891 51.0279 66.5685 50.149 67.8184 49.4542C68.2081 49.2406 68.6168 49.0478 69.0588 48.8749C69.496 48.7025 69.9665 48.5491 70.4607 48.4157L71.3304 49.9861L70.5225 50.4358L70.0235 49.7311C69.6956 49.7415 69.3819 49.7857 69.0873 49.8631C68.7926 49.94 68.5123 50.0511 68.2556 50.195C67.5428 50.5901 67.1388 51.1823 67.0437 51.9715C66.9487 52.7612 67.1768 53.6506 67.7281 54.6402C68.2604 55.5995 68.9162 56.2291 69.6956 56.5297C70.475 56.8303 71.2687 56.7586 72.0671 56.3146C72.818 55.8991 73.4453 55.3107 73.949 54.5495L74.4433 55.4413Z" fill="white" stroke="white" stroke-width="0.354691" stroke-miterlimit="79.8403" stroke-linecap="round" stroke-linejoin="round"/>
<path d="M76.1342 52.3946L76.1247 54.1449L76.9279 53.8339L77.2368 54.6336L75.0744 55.4727L74.7607 54.6735L75.2313 54.4906L75.2836 46.076L76.5382 45.5902L82.2553 51.7678L82.721 51.5873L83.03 52.3865L80.0454 53.5442L79.7318 52.745L80.5349 52.4345L79.3421 51.1509L76.1342 52.3946ZM76.1437 51.4353L78.691 50.4472L76.1627 47.7295L76.1437 51.4353Z" fill="white" stroke="white" stroke-width="0.354691" stroke-miterlimit="79.8403" stroke-linecap="round" stroke-linejoin="round"/>
<path d="M84.4228 44.2148L82.3032 44.7167L82.5171 45.6185L81.6094 45.8336L81.1816 44.0296L88.9756 42.1848L89.4033 43.9883L88.5004 44.202L88.2865 43.3002L86.1669 43.8022L87.7305 50.4085L88.5669 50.2109L88.7665 51.0448L85.3495 51.8525L85.1547 51.0187L85.9863 50.8211L84.4228 44.2148Z" fill="white" stroke="white" stroke-width="0.354691" stroke-miterlimit="79.8403" stroke-linecap="round" stroke-linejoin="round"/>
<path d="M93.58 46.1909L93.8794 49.3573L94.73 49.2766L94.8109 50.1299L91.3226 50.459L91.2418 49.6057L92.0972 49.5249L91.4509 42.6968L90.5955 42.7776L90.5146 41.9238L94.0077 41.5947L94.0885 42.4485L93.233 42.5287L93.4992 45.3376L96.9494 45.0118L96.6833 42.2035L95.8279 42.2837L95.7471 41.4304L99.2401 41.1013L99.3161 41.9546L98.4654 42.0354L99.1071 48.8634L99.9625 48.7832L100.043 49.6365L96.555 49.9656L96.4742 49.1123L97.3297 49.0315L97.0303 45.8656L93.58 46.1909Z" fill="white" stroke="white" stroke-width="0.354691" stroke-miterlimit="79.8403" stroke-linecap="round" stroke-linejoin="round"/>
<path d="M104.958 50.1191C103.627 50.0422 102.601 49.5802 101.879 48.734C101.156 47.8877 100.838 46.7685 100.919 45.3766C100.999 43.9848 101.446 42.9102 102.259 42.1528C103.076 41.3954 104.145 41.0554 105.476 41.1323C106.807 41.2097 107.838 41.6713 108.56 42.518C109.283 43.3642 109.606 44.4834 109.52 45.8753C109.444 47.2671 108.993 48.3417 108.175 49.0991C107.363 49.856 106.289 50.1965 104.958 50.1191ZM105.006 49.2634C105.733 49.3057 106.336 49.007 106.816 48.3674C107.292 47.7277 107.562 46.8601 107.629 45.7656C107.691 44.6667 107.524 43.773 107.12 43.0845C106.721 42.3959 106.156 42.0307 105.429 41.9885C104.701 41.9462 104.103 42.2444 103.623 42.8817C103.147 43.5195 102.876 44.388 102.815 45.4863C102.748 46.5852 102.919 47.4789 103.319 48.1674C103.718 48.856 104.283 49.2212 105.006 49.2634Z" fill="white" stroke="white" stroke-width="0.354691" stroke-miterlimit="79.8403" stroke-linecap="round" stroke-linejoin="round"/>
<path d="M116.273 51.5713L109.866 50.3005L110.037 49.46L110.878 49.6267L112.214 42.8998L111.373 42.7326L111.539 41.8916L114.975 42.574L114.809 43.4145L113.968 43.2478L112.646 49.9069L115.536 50.4805L115.716 49.5659L116.634 49.7473L116.273 51.5713Z" fill="white" stroke="white" stroke-width="0.354691" stroke-miterlimit="79.8403" stroke-linecap="round" stroke-linejoin="round"/>
<path d="M121.202 45.0096L119.296 51.5974L120.118 51.8358L119.88 52.6592L116.516 51.6852L116.753 50.8618L117.575 51.1002L119.486 44.5124L118.659 44.274L118.901 43.4506L122.266 44.4245L122.028 45.2479L121.202 45.0096Z" fill="white" stroke="white" stroke-width="0.354691" stroke-miterlimit="79.8403" stroke-linecap="round" stroke-linejoin="round"/>
<path d="M127.475 55.1817C126.529 55.204 125.583 55.0264 124.637 54.6499C123.307 54.1185 122.418 53.3359 121.967 52.3017C121.515 51.2674 121.553 50.0907 122.081 48.7706C122.613 47.4438 123.388 46.562 124.405 46.126C125.422 45.6896 126.595 45.7371 127.926 46.2685C128.335 46.4318 128.748 46.6285 129.157 46.8592C129.57 47.09 129.984 47.355 130.402 47.6546L129.732 49.3224L128.872 48.9785L129.105 48.148C128.886 47.8992 128.658 47.6855 128.411 47.506C128.164 47.3265 127.902 47.1817 127.627 47.0715C126.866 46.7695 126.154 46.8317 125.483 47.2581C124.813 47.6845 124.267 48.4234 123.844 49.4743C123.44 50.4929 123.364 51.3994 123.625 52.1934C123.887 52.9878 124.443 53.5544 125.293 53.8939C126.087 54.2116 126.942 54.3255 127.85 54.2348L127.475 55.1817Z" fill="white" stroke="white" stroke-width="0.354691" stroke-miterlimit="79.8403" stroke-linecap="round" stroke-linejoin="round"/>
<path d="M128.164 55.7953L129.077 54.1275L129.956 54.6081L129.528 55.3912C129.694 55.6804 129.87 55.9249 130.046 56.1239C130.227 56.3233 130.412 56.4758 130.607 56.5812C130.982 56.7868 131.343 56.85 131.686 56.7707C132.028 56.6913 132.289 56.4857 132.475 56.1533C132.646 55.8385 132.712 55.5427 132.674 55.2668C132.631 54.9918 132.46 54.6257 132.17 54.1674L131.819 53.618C131.343 52.8696 131.054 52.2404 130.958 51.7309C130.863 51.2242 130.935 50.7475 131.182 50.3001C131.519 49.6828 132.018 49.301 132.679 49.1543C133.339 49.0071 134.024 49.1258 134.727 49.5109C135.098 49.7127 135.454 49.9383 135.787 50.1881C136.124 50.4378 136.448 50.7133 136.747 51.0148L135.915 52.5401L135.036 52.0595L135.431 51.3377C135.288 51.0889 135.136 50.8771 134.97 50.7019C134.808 50.5262 134.627 50.387 134.437 50.283C134.152 50.1259 133.848 50.0936 133.539 50.1871C133.225 50.2802 132.988 50.4725 132.831 50.7641C132.698 51.0015 132.66 51.2446 132.712 51.4935C132.764 51.7461 132.931 52.0975 133.206 52.5486L133.553 53.1208C134.057 53.9409 134.357 54.5963 134.452 55.0873C134.542 55.5811 134.456 56.0636 134.2 56.5351C133.824 57.2227 133.268 57.633 132.532 57.7655C131.79 57.898 130.997 57.7318 130.146 57.2669C129.832 57.095 129.509 56.8856 129.176 56.6396C128.848 56.3936 128.511 56.112 128.164 55.7953Z" fill="white" stroke="white" stroke-width="0.354691" stroke-miterlimit="79.8403" stroke-linecap="round" stroke-linejoin="round"/>
<path d="M169.31 99.5079L168.968 97.3563L168.051 97.5011L167.908 96.5798L169.738 96.2906L170.988 104.198L169.158 104.487L169.011 103.572L169.928 103.427L169.586 101.276L162.876 102.335L163.009 103.182L162.163 103.316L161.616 99.854L162.462 99.7201L162.595 100.567L169.31 99.5079Z" fill="white" stroke="white" stroke-width="0.354691" stroke-miterlimit="79.8403" stroke-linecap="round" stroke-linejoin="round"/>
<path d="M166.654 108.504L163.475 108.542L163.484 109.4L162.624 109.411L162.581 105.909L163.441 105.898L163.451 106.756L170.313 106.672L170.304 105.814L171.159 105.803L171.207 109.305L170.346 109.316L170.337 108.458L167.514 108.493L167.557 111.957L170.38 111.922L170.37 111.065L171.226 111.055L171.268 114.556L170.413 114.566L170.399 113.709L163.536 113.793L163.546 114.651L162.69 114.661L162.648 111.16L163.503 111.149L163.517 112.007L166.697 111.967L166.654 108.504Z" fill="white" stroke="white" stroke-width="0.354691" stroke-miterlimit="79.8403" stroke-linecap="round" stroke-linejoin="round"/>
<path d="M161.854 121.609L162.585 115.163L163.441 115.26L163.341 116.112L170.161 116.886L170.261 116.034L171.111 116.131L170.408 122.307L168.707 122.113L168.806 121.192L169.662 121.289L169.961 118.661L167.119 118.339L166.92 120.115L167.49 120.179L167.39 121.031L165.399 120.805L165.494 119.953L166.064 120.018L166.269 118.242L163.208 117.895L162.88 120.787L163.807 120.892L163.702 121.819L161.854 121.609Z" fill="white" stroke="white" stroke-width="0.354691" stroke-miterlimit="79.8403" stroke-linecap="round" stroke-linejoin="round"/>
<path fill-rule="evenodd" clip-rule="evenodd" d="M47.4392 108.126C50.0055 78.8049 75.9062 57.0898 105.252 59.655C134.594 62.2202 156.327 88.0995 153.76 117.421C151.194 146.742 125.293 168.458 95.9472 165.893C66.6057 163.328 44.8729 137.448 47.4392 108.126Z" fill="#263696"/>
<path fill-rule="evenodd" clip-rule="evenodd" d="M50.9792 108.437C53.3744 81.0679 77.5499 60.7987 104.943 63.193C132.331 65.5872 152.614 89.7436 150.219 117.112C147.824 144.481 123.648 164.75 96.2603 162.356C68.8673 159.962 48.584 135.806 50.9792 108.437Z" fill="white"/>
<path fill-rule="evenodd" clip-rule="evenodd" d="M64.2901 148.207L76.7985 134.2H125.202L137.591 148.079C129.441 157.289 117.688 163.719 100.589 164.695C86.8213 164.054 74.2749 159.248 64.2901 148.207ZM61.8996 145.378L71.4995 134.2H73.9327L62.8786 146.581C62.5459 146.187 62.2181 145.786 61.8996 145.378ZM138.989 146.432L128.068 134.2H130.496L139.953 145.208C139.64 145.621 139.317 146.029 138.989 146.432ZM54.79 134.2H68.6813L60.5737 143.639C58.5064 140.821 56.5722 137.683 54.79 134.2ZM141.251 143.437L133.314 134.2H146.573C145.048 137.433 143.29 140.533 141.251 143.437Z" fill="#263696"/>
<path fill-rule="evenodd" clip-rule="evenodd" d="M185.102 211.826L171.434 196.82C169.3 194.537 167.661 192.523 166.496 189.635C164.895 185.522 163.759 181.294 162.751 177.181C161.939 173.858 160.665 172.436 159.567 171.084L104.577 109.496L50.5422 46.5914C48.9453 45.1368 47.5291 44.1026 45.305 43.518C39.393 41.364 33.6996 38.8795 29.3559 34.3716L13.5873 15.7636C9.80442 10.5761 9.85197 4.85449 13.0266 2.14777C16.7477 -1.52342 23.2395 -0.253159 27.5927 4.17354L41.2607 19.1802C43.3945 21.4629 45.0341 23.4768 46.1984 26.3654C47.8 30.4782 48.9311 34.706 49.9433 38.8188C50.7513 42.1423 52.0297 43.5641 53.1227 44.916L108.118 106.504L162.153 169.409C163.749 170.863 165.161 171.897 167.39 172.482C173.302 174.636 178.995 177.121 183.339 181.629L199.107 200.236C202.89 205.424 202.843 211.145 199.668 213.852C195.947 217.523 189.455 216.253 185.102 211.826Z" fill="#263696"/>
<path fill-rule="evenodd" clip-rule="evenodd" d="M16.9002 211.826L30.5682 196.82C32.702 194.537 34.3416 192.523 35.5059 189.635C37.1075 185.522 38.2386 181.294 39.2509 177.181C40.0588 173.858 41.3372 172.436 42.4303 171.084L97.4252 109.496L151.46 46.5914C153.057 45.1368 154.468 44.1026 156.697 43.518C162.609 41.364 168.303 38.8795 172.647 34.3716L188.415 15.7636C192.198 10.5761 192.15 4.85449 188.976 2.14777C185.25 -1.52342 178.763 -0.253159 174.405 4.17354L160.742 19.1802C158.603 21.4629 156.964 23.4768 155.804 26.3654C154.202 30.4782 153.067 34.706 152.059 38.8188C151.246 42.1423 149.968 43.5641 148.875 44.916L93.8847 106.504L39.8449 169.409C38.2528 170.863 36.8366 171.897 34.6125 172.482C28.7005 174.636 23.0071 177.121 18.6634 181.629L2.89485 200.236C-0.888072 205.424 -0.845268 211.145 2.3341 213.852C6.05524 217.523 12.547 216.253 16.9002 211.826Z" fill="#263696"/>
<path fill-rule="evenodd" clip-rule="evenodd" d="M31.7271 58.5244C29.2178 61.1789 29.3604 64.4199 32.1548 66.2172L56.9624 84.2384C58.9251 85.5718 61.7148 85.7632 63.8059 83.3124L70.8727 75.6661C72.7452 73.7429 72.7594 71.4854 71.2909 69.3514L50.6892 46.3275C48.2132 43.7252 45.5803 43.3753 42.938 46.1494L31.7271 58.5244Z" fill="white" stroke="#263696" stroke-width="2.12815" stroke-miterlimit="79.8403" stroke-linecap="round" stroke-linejoin="round"/>
<path d="M61.4582 66.8078C60.8642 68.2822 59.9612 69.6232 58.7541 70.8308C57.048 72.5346 55.2469 73.3908 53.3506 73.4003C51.4497 73.4093 49.658 72.5693 47.9661 70.8793C46.2647 69.1802 45.4141 67.4004 45.4141 65.5404C45.4141 63.6803 46.2695 61.8986 47.9709 60.1948C48.4984 59.6715 49.0734 59.1681 49.7008 58.6861C50.3328 58.2037 51.0172 57.7402 51.7586 57.2948L53.8924 59.4303L52.7898 60.5324L51.6587 59.6231C51.1312 59.7926 50.6465 60.0086 50.2093 60.2703C49.7673 60.5315 49.3681 60.8392 49.0164 61.1925C48.0469 62.1607 47.6667 63.3047 47.8806 64.6248C48.0945 65.9449 48.8786 67.2774 50.2235 68.6232C51.5304 69.9276 52.8801 70.6418 54.2821 70.7658C55.6841 70.8902 56.9292 70.4087 58.0175 69.3208C59.0393 68.3017 59.7807 67.0599 60.2464 65.5954L61.4582 66.8078Z" fill="#263696" stroke="#263696" stroke-width="1.41877" stroke-miterlimit="79.8403" stroke-linecap="round" stroke-linejoin="round"/>
<path fill-rule="evenodd" clip-rule="evenodd" d="M158.849 45.8974C156.421 43.166 153.175 43.0254 151.141 45.6524L131.014 68.7755C129.513 70.6122 129.08 73.3726 131.342 75.6686L138.347 83.3705C140.101 85.4005 142.349 85.6128 144.606 84.3358L169.357 65.8365C172.166 63.5961 172.745 61.0062 170.208 58.1352L158.849 45.8974Z" fill="white" stroke="#263696" stroke-width="2.12815" stroke-miterlimit="79.8403" stroke-linecap="round" stroke-linejoin="round"/>
<path d="M145.467 64.5847L142.672 65.5154L143.604 66.6218L142.497 67.5488L139.987 64.56L141.09 63.633L141.636 64.2841L155.076 59.808L156.526 61.5384L149.777 73.978L150.319 74.6219L149.217 75.5488L145.752 71.4256L146.859 70.4986L147.786 71.6051L149.188 69.0128L145.467 64.5847ZM146.997 64.0742L149.953 67.592L152.914 62.103L146.997 64.0742Z" fill="#263696" stroke="#263696" stroke-width="1.41877" stroke-miterlimit="79.8403" stroke-linecap="round" stroke-linejoin="round"/>
<path fill-rule="evenodd" clip-rule="evenodd" d="M174.624 162.023C177.138 159.368 176.995 156.127 174.196 154.331L149.388 136.309C147.43 134.975 144.641 134.785 142.545 137.235L135.478 144.881C133.606 146.804 133.591 149.062 135.06 151.196L155.662 174.22C158.142 176.822 160.775 177.172 163.413 174.398L174.624 162.023Z" fill="white" stroke="#263696" stroke-width="2.12815" stroke-miterlimit="79.8403" stroke-linecap="round" stroke-linejoin="round"/>
<path d="M157.083 163.15L154.64 161.09L155.724 159.802L156.874 160.769C157.406 160.59 157.867 160.387 158.257 160.158C158.646 159.928 158.96 159.673 159.198 159.39C159.663 158.839 159.887 158.268 159.872 157.677C159.858 157.086 159.606 156.585 159.117 156.175C158.656 155.785 158.19 155.576 157.724 155.547C157.254 155.526 156.593 155.679 155.743 156.005L154.716 156.404C153.324 156.937 152.188 157.197 151.318 157.183C150.448 157.174 149.688 156.893 149.032 156.34C148.124 155.578 147.664 154.628 147.644 153.489C147.621 152.35 148.048 151.264 148.918 150.232C149.374 149.69 149.869 149.184 150.391 148.714C150.919 148.242 151.48 147.809 152.078 147.412L154.312 149.296L153.224 150.585L152.169 149.693C151.708 149.842 151.309 150.023 150.966 150.234C150.62 150.445 150.33 150.69 150.097 150.968C149.74 151.39 149.588 151.875 149.636 152.421C149.683 152.968 149.921 153.421 150.349 153.781C150.696 154.074 151.085 154.219 151.513 154.214C151.945 154.214 152.582 154.061 153.419 153.756L154.478 153.375C155.999 152.822 157.183 152.551 158.024 152.562C158.87 152.578 159.635 152.877 160.329 153.459C161.336 154.309 161.826 155.363 161.797 156.621C161.769 157.88 161.227 159.132 160.177 160.378C159.787 160.84 159.331 161.301 158.813 161.762C158.299 162.223 157.72 162.686 157.083 163.15Z" fill="#263696" stroke="#263696" stroke-width="1.41877" stroke-miterlimit="79.8403" stroke-linecap="round" stroke-linejoin="round"/>
<path fill-rule="evenodd" clip-rule="evenodd" d="M37.8817 175.013C40.3102 177.744 43.5561 177.885 45.5901 175.258L65.7214 152.135C67.2184 150.299 67.6556 147.538 65.3934 145.242L58.3836 137.54C56.63 135.51 54.3821 135.298 52.1247 136.575L27.3741 155.074C24.5654 157.314 23.9856 159.904 26.5234 162.775L37.8817 175.013Z" fill="white" stroke="#263696" stroke-width="2.12815" stroke-miterlimit="79.8403" stroke-linecap="round" stroke-linejoin="round"/>
<path d="M48.8594 151.255L46.2741 148.659L45.1668 149.758L44.0595 148.646L46.2741 146.447L55.779 155.99L53.5643 158.19L52.4665 157.085L53.5691 155.985L50.9838 153.389L42.8857 161.442L43.9027 162.464L42.8809 163.481L38.7178 159.304L39.7443 158.286L40.7613 159.308L48.8594 151.255Z" fill="#263696" stroke="#263696" stroke-width="1.41877" stroke-miterlimit="79.8403" stroke-linecap="round" stroke-linejoin="round"/>
<path d="M78.459 180.641L78.9628 178.809L79.9275 179.073L79.6946 179.934C79.9227 180.177 80.1509 180.374 80.3695 180.527C80.5928 180.68 80.8067 180.785 81.0205 180.843C81.434 180.956 81.8 180.935 82.1136 180.779C82.4273 180.623 82.6364 180.363 82.7362 179.997C82.8312 179.651 82.8264 179.348 82.7266 179.088C82.6221 178.831 82.375 178.513 81.9853 178.135L81.5148 177.681C80.878 177.063 80.455 176.516 80.2459 176.042C80.032 175.572 79.994 175.091 80.1271 174.599C80.3124 173.922 80.7116 173.435 81.3247 173.139C81.933 172.844 82.6269 172.802 83.4015 173.015C83.8055 173.126 84.1999 173.264 84.5896 173.43C84.9746 173.595 85.3452 173.79 85.7112 174.013L85.2502 175.689L84.2855 175.424L84.504 174.631C84.3092 174.422 84.1096 174.251 83.91 174.118C83.7104 173.985 83.5061 173.89 83.297 173.833C82.9786 173.746 82.6792 173.784 82.3988 173.947C82.1136 174.11 81.9282 174.351 81.8379 174.671C81.7667 174.932 81.7857 175.178 81.895 175.408C82.0043 175.641 82.2467 175.946 82.6221 176.321L83.0926 176.797C83.7674 177.48 84.2094 178.049 84.4138 178.505C84.6181 178.965 84.6466 179.453 84.504 179.971C84.2949 180.727 83.8482 181.254 83.1639 181.553C82.4748 181.851 81.6669 181.873 80.7307 181.617C80.3837 181.522 80.0225 181.393 79.6423 181.229C79.2669 181.065 78.8724 180.869 78.459 180.641Z" fill="white" stroke="white" stroke-width="0.354691" stroke-miterlimit="79.8403" stroke-linecap="round" stroke-linejoin="round"/>
<path d="M88.8662 179.104L88.4052 182.251L89.2559 182.374L89.1324 183.223L85.6631 182.718L85.7867 181.869L86.6374 181.993L87.6258 175.206L86.7799 175.083L86.9035 174.234L90.368 174.74L90.2444 175.588L89.3985 175.464L88.9898 178.255L92.421 178.756L92.825 175.964L91.9791 175.84L92.1026 174.992L95.5719 175.497L95.4435 176.346L94.5977 176.222L93.6044 183.008L94.4551 183.132L94.3315 183.98L90.8622 183.475L90.9858 182.627L91.8365 182.751L92.2974 179.604L88.8662 179.104Z" fill="white" stroke="white" stroke-width="0.354691" stroke-miterlimit="79.8403" stroke-linecap="round" stroke-linejoin="round"/>
<path d="M100.561 184.332C99.2302 184.33 98.1799 183.926 97.41 183.122C96.6449 182.318 96.2599 181.218 96.2647 179.824C96.2647 178.43 96.6497 177.332 97.4196 176.53C98.1942 175.728 99.2445 175.329 100.575 175.33C101.911 175.333 102.961 175.736 103.731 176.541C104.501 177.345 104.886 178.445 104.881 179.839C104.881 181.233 104.491 182.33 103.721 183.133C102.947 183.935 101.896 184.334 100.561 184.332ZM100.566 183.475C101.293 183.476 101.877 183.144 102.319 182.479C102.761 181.813 102.98 180.932 102.985 179.836C102.985 178.735 102.766 177.852 102.329 177.187C101.892 176.522 101.307 176.189 100.575 176.188C99.848 176.187 99.2682 176.518 98.8263 177.181C98.3843 177.845 98.161 178.727 98.161 179.827C98.161 180.928 98.3795 181.811 98.8167 182.476C99.254 183.141 99.8385 183.473 100.566 183.475Z" fill="white" stroke="white" stroke-width="0.354691" stroke-miterlimit="79.8403" stroke-linecap="round" stroke-linejoin="round"/>
<path d="M108.84 179.992L109.221 182.77L109.933 182.672L110.048 183.522L106.787 183.967L106.669 183.117L107.519 183.001L106.593 176.206L105.742 176.322L105.623 175.473L109.287 174.973C110.204 174.848 110.936 174.936 111.478 175.238C112.025 175.54 112.343 176.031 112.433 176.713C112.514 177.29 112.443 177.799 112.224 178.238C112.006 178.677 111.635 179.045 111.112 179.343L113.778 182.147L114.348 182.07L114.467 182.919L112.281 183.217L109.496 179.902L108.84 179.992ZM108.731 179.177L109.026 179.136C109.677 179.048 110.138 178.829 110.418 178.481C110.699 178.134 110.798 177.655 110.713 177.047C110.651 176.588 110.466 176.262 110.157 176.07C109.848 175.879 109.415 175.821 108.859 175.896L108.289 175.974L108.731 179.177Z" fill="white" stroke="white" stroke-width="0.354691" stroke-miterlimit="79.8403" stroke-linecap="round" stroke-linejoin="round"/>
<path d="M122.356 180.904L116.078 182.57L115.86 181.742L116.691 181.522L114.928 174.893L114.097 175.114L113.878 174.285L119.89 172.689L120.327 174.346L119.433 174.584L119.215 173.755L116.653 174.434L117.39 177.194L119.115 176.736L118.968 176.181L119.799 175.961L120.313 177.898L119.486 178.118L119.338 177.564L117.609 178.023L118.397 180.996L121.216 180.248L120.973 179.347L121.876 179.108L122.356 180.904Z" fill="white" stroke="white" stroke-width="0.354691" stroke-miterlimit="79.8403" stroke-linecap="round" stroke-linejoin="round"/>
<path d="M140.963 134.299C138.33 126.26 141.229 119.392 150.653 118.407C144.926 114.467 144.095 106.789 149.479 101.17C142.246 100.791 137.931 93.2771 142.455 86.4182C132.214 88.4283 120.765 83.1701 121.749 67.4786" stroke="#263696" stroke-width="1.41877" stroke-miterlimit="79.8403" stroke-linecap="round" stroke-linejoin="round"/>
<path d="M134.371 134.367C132.888 127.585 133.971 119.204 143.087 117.124C139.798 112.815 140.321 107.143 143.467 102.772C137.203 101.285 134.751 97 137.583 90.0841C125.983 90.5053 115.817 83.3382 117.595 65.1698" stroke="#263696" stroke-width="1.41877" stroke-miterlimit="79.8403" stroke-linecap="round" stroke-linejoin="round"/>
<path d="M60.5455 134.299C63.1736 126.26 60.2794 119.392 50.8506 118.407C56.5772 114.467 57.4089 106.789 52.0244 101.17C59.2624 100.791 63.5776 93.2771 59.0533 86.4182C69.29 88.4283 80.7433 83.1701 79.7595 67.4786" stroke="#263696" stroke-width="1.41877" stroke-miterlimit="79.8403" stroke-linecap="round" stroke-linejoin="round"/>
<path d="M67.4946 134.367C68.9773 127.585 67.5373 119.204 58.4222 117.124C61.7061 112.815 61.1881 107.143 58.042 102.772C64.3057 101.285 66.7579 97 63.9255 90.0841C75.5261 90.5053 85.6915 83.3382 83.9141 65.1698" stroke="#263696" stroke-width="1.41877" stroke-miterlimit="79.8403" stroke-linecap="round" stroke-linejoin="round"/>
<path fill-rule="evenodd" clip-rule="evenodd" d="M85.962 62.3857L85.8527 75.2584C85.6246 77.5843 87.3925 79.8199 90.3865 81.9981L89.0273 117.258L101.127 122.703L110.964 120.228L112.029 108.348L111.036 81.9905C113.588 80.8955 115.584 79.0734 115.636 74.707L115.494 62.2048C114.524 57.9049 109.947 55.5453 101.426 55.3102C93.276 55.5125 86.7699 56.8939 85.962 62.3857Z" fill="white"/>
<path fill-rule="evenodd" clip-rule="evenodd" d="M97.5205 116.675L98.1574 81.1964C98.1669 80.8056 98.49 80.496 98.8797 80.505C99.2694 80.5135 99.5783 80.8374 99.5736 81.2277L98.932 116.707C98.9273 117.098 98.6041 117.407 98.2096 117.398C97.82 117.39 97.511 117.066 97.5205 116.675ZM102.33 116.707L101.693 81.2277C101.684 80.8374 101.997 80.5135 102.387 80.505C102.777 80.496 103.1 80.8056 103.109 81.1964L103.746 116.675C103.756 117.066 103.447 117.39 103.057 117.398C102.663 117.407 102.339 117.098 102.33 116.707ZM93.9514 116.312L94.9543 81.6105C94.9685 81.2206 95.2964 80.9153 95.6861 80.9295C96.0758 80.9438 96.3847 81.2719 96.3705 81.6618L95.3677 116.364C95.3535 116.753 95.0255 117.059 94.6358 117.045C94.2414 117.03 93.9372 116.702 93.9514 116.312ZM105.899 116.364L104.896 81.6618C104.882 81.2719 105.191 80.9438 105.581 80.9295C105.97 80.9153 106.298 81.2206 106.312 81.6105L107.315 116.312C107.329 116.702 107.021 117.03 106.631 117.045C106.241 117.059 105.913 116.753 105.899 116.364ZM90.9955 115.875L92.0885 83.1619C92.1075 82.7715 92.4354 82.4691 92.8251 82.4857C93.2148 82.5018 93.519 82.8318 93.5047 83.2217L92.4117 115.935C92.3927 116.326 92.0648 116.628 91.6751 116.611C91.2854 116.595 90.9812 116.265 90.9955 115.875ZM108.855 115.935L107.762 83.2217C107.748 82.8318 108.052 82.5018 108.442 82.4857C108.831 82.4691 109.159 82.7715 109.178 83.1619L110.271 115.875C110.286 116.265 109.981 116.595 109.592 116.611C109.202 116.628 108.869 116.326 108.855 115.935ZM88.8426 108.163L89.7076 82.9102L88.3674 81.7606C86.7753 80.2961 85.3591 78.5205 85.1357 75.8247C85.1357 75.8043 85.1357 75.7834 85.1357 75.7635L85.207 62.4549C85.3876 58.3131 90.1543 54.5498 100.519 54.5498L100.724 54.547C111.089 54.547 116.003 58.3074 116.183 62.4549L116.255 75.7635C116.255 75.7834 116.255 75.8043 116.25 75.8247C116.031 78.5205 114.61 80.2961 113.018 81.7606L111.678 82.9102L112.548 108.163C112.567 108.552 112.263 108.884 111.873 108.903C111.483 108.921 111.15 108.62 111.131 108.23L110.248 82.6324C110.243 82.5118 110.271 82.3931 110.319 82.2876C108.77 80.2049 106.179 78.6972 100.695 78.7979C95.2061 78.6972 92.6208 80.2049 91.0668 82.2876C91.119 82.3935 91.1428 82.5118 91.138 82.6324L90.2541 108.23C90.2351 108.62 89.9024 108.921 89.5127 108.903C89.123 108.884 88.8236 108.552 88.8426 108.163ZM100.695 69.6933C107.201 69.6933 112.557 71.6122 114.834 75.0555L114.767 62.49C114.643 59.6684 111.032 55.9616 100.733 55.9616L100.529 55.9644C90.2303 55.9644 86.7468 59.6627 86.6185 62.49L86.552 75.0559C88.8284 71.6127 94.1843 69.6933 100.695 69.6933ZM109.078 67.158C106.669 66.0928 103.504 65.56 100.415 65.5676C97.3162 65.5752 94.3887 66.1256 92.4402 67.1385C92.0933 67.3185 91.6656 67.1841 91.485 66.8379C91.3044 66.4917 91.4422 66.0644 91.7891 65.8839C94.0133 64.7267 97.1879 64.1616 100.41 64.1535C103.642 64.1459 107.016 64.6986 109.649 65.8649C110.01 66.0226 110.167 66.4409 110.01 66.7975C109.853 67.1546 109.435 67.3156 109.078 67.158ZM94.3507 61.4686C94.2461 61.0925 94.4695 60.7031 94.8449 60.5996C95.5863 60.3973 96.475 60.2482 97.4398 60.1494C98.4045 60.0507 99.4548 60.0003 100.524 59.9994C102.648 59.9965 104.868 60.1879 106.607 60.5934C106.987 60.6817 107.22 61.0621 107.135 61.443C107.044 61.8228 106.664 62.0589 106.284 61.9701C104.687 61.5973 102.582 61.4107 100.524 61.413C99.4976 61.4145 98.4948 61.4629 97.5823 61.5565C96.6698 61.65 95.8619 61.7882 95.2204 61.9639C94.8449 62.0669 94.4552 61.8452 94.3507 61.4686Z" fill="#263696"/>
<path fill-rule="evenodd" clip-rule="evenodd" d="M82.231 155.047C80.349 154.569 80.7482 151.812 83.2242 146.976C92.7433 126.241 107.2 108.992 126.604 95.2299C130.905 92.8375 132.359 95.1193 131.361 99.3213C121.296 121.941 105.969 140.788 84.5549 155.269L82.231 155.047Z" fill="white"/>
<path fill-rule="evenodd" clip-rule="evenodd" d="M79.675 157.754C78.5962 156.882 77.4461 155.644 78.2825 153.24C80.1645 148.139 82.0512 144.94 84.5415 140.137C94.2079 119.672 113.636 100.677 125.346 93.3421C128.782 91.1041 131.372 90.7978 132.883 92.0215L132.907 92.0424C134.428 93.2685 134.665 95.8608 133.192 99.6868C128.454 112.662 113.916 135.608 95.8998 149.324C91.7176 152.757 88.9803 155.266 84.3799 158.172C82.2128 159.485 80.7253 158.606 79.675 157.754Z" fill="white"/>
<path fill-rule="evenodd" clip-rule="evenodd" d="M79.2803 153.598C81.1337 148.587 82.9729 145.472 85.4917 140.607C95.0726 120.328 114.353 101.481 125.916 94.2363C129.323 92.0196 131.3 92.1074 132.217 92.8487L132.241 92.8691C133.158 93.6099 133.657 95.5251 132.198 99.3145C127.517 112.129 113.094 134.9 95.2437 148.492C91.0093 151.969 88.3431 154.415 83.8236 157.27C82.2173 158.241 81.2478 157.662 80.3401 156.929C79.4324 156.196 78.6672 155.37 79.2803 153.598ZM84.755 153.628C89.3649 151.215 99.0979 144.05 109.981 131.193C119.234 119.769 126.077 110.067 130.16 98.3244C130.183 97.7731 130.45 97.4464 129.228 98.2161L122.945 104.656L87.4212 148.525C85.0592 151.928 83.6192 154.267 84.755 153.628ZM86.7939 148.02L122.323 104.151L127.318 96.6695C127.817 95.3161 127.551 95.6419 127.018 95.7839C117.908 101.368 108.037 111.268 99.0551 122.358C88.4191 136.347 83.2486 148.753 82.3551 151.689C81.9654 152.932 83.9567 151.037 86.7939 148.02Z" fill="#263696"/>
<path fill-rule="evenodd" clip-rule="evenodd" d="M112.039 158.187L111.982 158.155L111.935 158.116C99.8064 148.912 88.5193 136.101 77.7313 121.337C70.7881 112.401 67.4234 103.693 68.3406 94.8636C68.4452 93.4979 68.8111 92.8017 69.5097 92.2191L69.5429 92.1891L69.5857 92.163C70.3319 91.6459 71.1017 91.4835 72.4467 91.7527C81.2006 93.2533 88.6857 98.8429 95.4246 107.932C106.74 122.298 116.036 136.615 121.634 150.768L121.658 150.827L121.672 150.889C122.166 152.814 121.839 154.105 120.365 155.224L118.469 156.661L116.568 158.099C115.095 159.217 113.759 159.182 112.039 158.187Z" fill="white"/>
<path fill-rule="evenodd" clip-rule="evenodd" d="M112.899 150.215L112.846 150.147L110.099 151.905C102.795 148.94 92.4632 136.63 81.6134 122.721C80.145 120.398 79.4369 118.106 80.5014 115.883L84.6265 112.361L84.6123 112.344L84.7643 112.243L84.9021 112.125L84.9117 112.142L89.4217 109.127C91.8502 108.703 93.87 110.002 95.7091 112.041C106.183 126.235 115.256 139.498 116.145 147.329L113.707 149.493L113.759 149.561L113.303 149.854L112.899 150.215Z" fill="white"/>
<path fill-rule="evenodd" clip-rule="evenodd" d="M78.5445 120.723C89.3183 135.462 100.534 148.184 112.553 157.304C113.993 158.136 114.867 158.107 115.956 157.286L117.852 155.848L106.75 141.22L105.937 141.836L108.356 148.963L107.544 149.579C99.9922 144.588 91.1337 133.345 82.2229 121.835C80.3695 119.397 81.1773 117.081 82.8027 115.848L85.7872 113.589L70.1613 93.0021C69.724 93.3663 69.4484 93.7771 69.3581 94.9538C68.4789 103.444 71.6915 111.896 78.5445 120.723Z" fill="#263696"/>
<path fill-rule="evenodd" clip-rule="evenodd" d="M94.6123 108.55C105.909 122.891 115.138 137.118 120.684 151.141C121.098 152.752 120.831 153.588 119.748 154.41L117.852 155.848L106.75 141.22L107.563 140.604L113.779 144.854L114.591 144.238C111.821 135.628 103.376 124.07 94.6931 112.387C92.8444 109.949 90.3922 110.097 88.7669 111.33L85.7871 113.589L70.1611 93.0016C70.6316 92.6782 71.1021 92.5225 72.2617 92.7542C80.6783 94.1978 87.9589 99.5714 94.6123 108.55Z" fill="#263696"/>
<path d="M117.233 155.035L70.5742 93.5439" stroke="#263696" stroke-width="2.12815" stroke-miterlimit="79.8403" stroke-linecap="round" stroke-linejoin="round"/>
<path fill-rule="evenodd" clip-rule="evenodd" d="M72.8037 103.799L79.5807 98.6639L75.3463 108.273L87.9925 106.37L77.9601 113.97L83.2068 102.317L72.8037 103.799Z" stroke="white" stroke-width="0.709383" stroke-miterlimit="79.8403" stroke-linecap="round" stroke-linejoin="round"/>
<path fill-rule="evenodd" clip-rule="evenodd" d="M88.6102 107.184C88.1587 107.524 87.5219 107.436 87.1797 106.987C86.8375 106.539 86.9278 105.899 87.3746 105.558C87.826 105.218 88.4676 105.306 88.805 105.755C89.1472 106.203 89.0569 106.844 88.6102 107.184Z" fill="white"/>
<path fill-rule="evenodd" clip-rule="evenodd" d="M78.5775 114.783C78.1308 115.123 77.4892 115.035 77.1471 114.587C76.8096 114.138 76.8952 113.498 77.3467 113.158C77.7934 112.817 78.435 112.906 78.7772 113.354C79.1146 113.803 79.029 114.443 78.5775 114.783Z" fill="white"/>
<path fill-rule="evenodd" clip-rule="evenodd" d="M83.5531 103.335C83.1064 103.675 82.4648 103.587 82.1227 103.138C81.7852 102.69 81.8707 102.05 82.3222 101.71C82.769 101.37 83.4105 101.457 83.748 101.906C84.0901 102.354 84.0046 102.995 83.5531 103.335Z" fill="white"/>
<path fill-rule="evenodd" clip-rule="evenodd" d="M75.9627 109.085C75.5112 109.425 74.8744 109.337 74.5322 108.888C74.1901 108.44 74.2804 107.8 74.7271 107.459C75.1786 107.119 75.8202 107.208 76.1576 107.656C76.4998 108.105 76.4094 108.745 75.9627 109.085Z" fill="white"/>
<path fill-rule="evenodd" clip-rule="evenodd" d="M79.9281 99.6816C79.4814 100.022 78.8398 99.9338 78.4977 99.485C78.1602 99.0363 78.2457 98.3962 78.6972 98.0562C79.144 97.7161 79.7855 97.804 80.1277 98.2527C80.4651 98.7015 80.3796 99.3416 79.9281 99.6816Z" fill="white"/>
<path fill-rule="evenodd" clip-rule="evenodd" d="M73.6908 104.406C73.2441 104.746 72.6025 104.658 72.2604 104.21C71.9229 103.761 72.0084 103.121 72.4599 102.781C72.9067 102.441 73.5482 102.529 73.8904 102.977C74.2278 103.426 74.1423 104.066 73.6908 104.406Z" fill="white"/>
<path fill-rule="evenodd" clip-rule="evenodd" d="M111.102 153.708L117.879 148.574L107.476 150.055L115.336 144.1L111.102 153.708Z" stroke="white" stroke-width="0.709383" stroke-miterlimit="79.8403" stroke-linecap="round" stroke-linejoin="round"/>
<path fill-rule="evenodd" clip-rule="evenodd" d="M114.454 143.492C114.003 143.832 113.917 144.472 114.254 144.921C114.597 145.369 115.238 145.457 115.685 145.117C116.136 144.777 116.222 144.137 115.885 143.688C115.542 143.24 114.901 143.151 114.454 143.492Z" fill="white"/>
<path fill-rule="evenodd" clip-rule="evenodd" d="M106.86 149.243C106.413 149.583 106.323 150.223 106.665 150.672C107.007 151.12 107.644 151.208 108.096 150.868C108.542 150.528 108.633 149.888 108.29 149.439C107.953 148.991 107.311 148.903 106.86 149.243Z" fill="white"/>
<path fill-rule="evenodd" clip-rule="evenodd" d="M116.992 147.965C116.545 148.306 116.455 148.946 116.797 149.394C117.139 149.843 117.776 149.931 118.227 149.591C118.674 149.251 118.764 148.611 118.422 148.162C118.085 147.714 117.443 147.625 116.992 147.965Z" fill="white"/>
<path fill-rule="evenodd" clip-rule="evenodd" d="M110.755 152.689C110.309 153.029 110.218 153.67 110.561 154.118C110.903 154.567 111.54 154.654 111.991 154.314C112.438 153.974 112.528 153.334 112.186 152.886C111.848 152.437 111.207 152.349 110.755 152.689Z" fill="white"/>
</svg>
