<svg width="32" height="32" viewBox="0 0 32 32" fill="none" xmlns="http://www.w3.org/2000/svg">
<circle cx="16" cy="16" r="16" fill="black" fill-opacity="0.08"/>
<path d="M17.7039 24.8481L17.6457 24.8307C12.0271 22.8061 7.79786 17.227 7.50656 11.8616C7.38757 9.7111 8.92124 7.34856 11.9008 7.55068C12.1026 7.56476 12.2856 7.67825 12.389 7.8547C13.2834 9.38057 13.7832 11.1202 13.9719 12.6419C13.9973 12.849 13.9178 13.0553 13.761 13.1911L12.403 14.3633L12.6065 14.9084C13.3753 16.696 14.5997 18.1125 16.1432 19.2971L16.5953 19.6218L18.3243 18.3577C18.4859 18.2393 18.6944 18.2078 18.8831 18.2732C19.958 18.6419 21.6575 19.7942 22.6381 20.8669C22.7554 20.9953 22.8137 21.1676 22.7989 21.3416C22.5938 23.7298 20.4799 25.5489 17.7039 24.8481Z" fill="#013354"/>
<path d="M21.459 21.835L21.5214 21.4987L21.3778 21.3537C20.6195 20.6388 19.5807 19.9388 18.8323 19.5917L18.7691 19.5661L16.9581 20.8898C16.7497 21.0422 16.4699 21.0472 16.2557 20.9031C13.899 19.3134 12.0125 17.2549 11.0885 14.3647C11.0122 14.1261 11.0852 13.8643 11.2739 13.7011L12.6936 12.4759L12.5655 11.7304C12.408 11.0047 12.1749 10.2567 11.8607 9.53851L11.4791 8.78551L11.429 8.78468C9.55976 8.84681 8.65301 10.3437 8.73343 11.7934C8.97878 16.3163 12.3949 21.1458 17.1001 23.2722L18.0396 23.6533C19.7842 24.0758 21.0692 23.167 21.459 21.835Z" fill="#EBEBEB"/>
<path d="M18.0343 23.649L18.0433 23.6523C18.0302 23.6499 18.017 23.6465 18.0039 23.6424L18.0343 23.649Z" fill="#0276B3"/>
<path d="M23.2485 16.51C23.8443 11.8562 20.8311 8.43001 17.5537 8.24031L17.6235 7.00023C21.7313 7.23797 25.1416 11.423 24.4687 16.6699L23.2485 16.51Z" fill="#0276B3"/>
<path d="M19.5926 15.7511C19.8281 13.4283 18.5135 12.0789 16.755 11.8883L16.8855 10.6532C19.3259 10.9166 21.1205 12.8807 20.8177 15.8778L19.5926 15.7511Z" fill="#0276B3"/>
<path d="M15.3682 15.1041C15.3682 14.5897 15.7817 14.1722 16.2913 14.1722C16.8009 14.1722 17.2145 14.5897 17.2145 15.1041C17.2145 15.6185 16.8009 16.036 16.2913 16.036C15.7817 16.036 15.3682 15.6185 15.3682 15.1041Z" fill="#0276B3"/>
</svg>
