<svg width="23" height="24" viewBox="0 0 23 24" fill="none" xmlns="http://www.w3.org/2000/svg">
<path d="M13.6051 23.7975L13.5274 23.7743C6.03602 21.0749 0.396988 13.636 0.0085793 6.48209C-0.150066 3.61479 1.89482 0.464731 5.86753 0.734232C6.13668 0.753008 6.38067 0.904325 6.51852 1.13959C7.7111 3.17409 8.37741 5.49356 8.62906 7.52254C8.66297 7.79867 8.55685 8.07369 8.34787 8.25483L6.53712 9.81771L6.80846 10.5445C7.83364 12.928 9.46605 14.8167 11.5241 16.3962L12.1269 16.8291L14.4322 15.1436C14.6477 14.9857 14.9257 14.9437 15.1773 15.031C16.6106 15.5225 18.8765 17.0589 20.1839 18.4892C20.3404 18.6604 20.4181 18.8901 20.3984 19.1221C20.1249 22.3064 17.3064 24.7319 13.6051 23.7975Z" fill="white"/>
<path d="M18.6117 19.78L18.6948 19.3316L18.5034 19.1383C17.4924 18.1851 16.1073 17.2518 15.1094 16.789L15.0252 16.7547L12.6105 18.5198C12.3326 18.723 11.9595 18.7296 11.6739 18.5374C8.53166 16.4179 6.0163 13.6732 4.78434 9.81954C4.68259 9.50144 4.77996 9.15242 5.03161 8.93483L6.92442 7.30126L6.75373 6.3072C6.54367 5.33965 6.23294 4.34228 5.8139 3.38467L5.30513 2.38067L5.23839 2.37957C2.74602 2.46241 1.53703 4.45825 1.64425 6.39114C1.97139 12.4218 6.52616 18.861 12.7998 21.6963L14.0525 22.2044C16.3786 22.7677 18.092 21.556 18.6117 19.78Z" fill="#013354"/>
<path d="M14.0454 22.1987L14.0574 22.2031C14.0399 22.1998 14.0224 22.1954 14.0049 22.1899L14.0454 22.1987Z" fill="#0276B3"/>
<path d="M20.9984 12.6794C21.7927 6.47428 17.7751 1.90603 13.4053 1.6531L13.4983 -0.000352859C18.9754 0.316641 23.5225 5.89662 22.6253 12.8926L20.9984 12.6794Z" fill="#0276B3"/>
<path d="M16.1233 11.6679C16.4373 8.57088 14.6845 6.77164 12.3398 6.5176L12.5138 4.87078C15.7677 5.22201 18.1605 7.8408 17.7568 11.8369L16.1233 11.6679Z" fill="#0276B3"/>
<path d="M10.4902 10.8053C10.4902 10.1194 11.0417 9.56271 11.7211 9.56271C12.4005 9.56271 12.952 10.1194 12.952 10.8053C12.952 11.4912 12.4005 12.0479 11.7211 12.0479C11.0417 12.0479 10.4902 11.4912 10.4902 10.8053Z" fill="#0276B3"/>
</svg>
