<svg width="25" height="26" fill="none" xmlns="http://www.w3.org/2000/svg"><circle cx="13" cy="13" r="11.5" stroke="#013354"/><path d="M11.375 17.884c0-.18.012-.384.036-.612.036-.228.084-.492.144-.792.06-.3.12-.642.18-1.026l.81-4.302c.036-.18.006-.312-.09-.396-.084-.096-.222-.174-.414-.234a3.904 3.904 0 00-.738-.18l-.198-.036.126-.63h2.628l-1.152 6.102a57.23 57.23 0 01-.27 1.512 4.474 4.474 0 00-.036.504c0 .192.054.336.162.432a.685.685 0 00.432.126c.204 0 .39-.018.558-.054.168-.048.324-.096.468-.144.144-.048.252-.078.324-.09l-.126.702c-.108.048-.24.102-.396.162a5.15 5.15 0 01-.504.126 2.574 2.574 0 01-.54.054c-.276 0-.522-.042-.738-.126a1.051 1.051 0 01-.486-.396 1.3 1.3 0 01-.18-.702zm1.386-11.52c0-.288.084-.504.252-.648a.89.89 0 01.63-.234.89.89 0 01.63.234c.18.144.27.36.27.648 0 .288-.09.51-.27.666a.934.934 0 01-.63.216.934.934 0 01-.63-.216c-.168-.156-.252-.378-.252-.666z" fill="#013354"/></svg>