<svg width="56" height="60" fill="none" xmlns="http://www.w3.org/2000/svg"><path fill-rule="evenodd" clip-rule="evenodd" d="M.647 59.403c-.881-.752-.893-2.34.156-3.782l4.371-5.169c1.177-1.223 2.71-1.91 4.31-2.5l-2.35-2.538c-.836-.947-.625-1.854.274-2.573l.16-.12a23.227 23.227 0 01-2.881-13.427 23.214 23.214 0 013.797-10.868l-.048-.038c-.636-.644-.55-1.6.142-2.333l3.108-3.438c.265-.278.535-.46.804-.554-1.614-.593-3.165-1.28-4.352-2.515l-4.371-5.17C2.718 2.939 2.73 1.349 3.61.598c1.032-1.02 2.832-.667 4.039.562l3.789 4.169c.591.634 1.046 1.193 1.368 1.996.444 1.142.758 2.317 1.039 3.459.176.726.433 1.125.682 1.446A23.173 23.173 0 0129.92 8.095a23.16 23.16 0 0111.476 4.231c.271-.338.565-.741.76-1.543.28-1.142.594-2.317 1.038-3.46.321-.802.776-1.361 1.369-1.995l3.788-4.169c1.208-1.23 3.006-1.582 4.04-.562.88.751.892 2.34-.156 3.782l-4.372 5.169c-1.167 1.213-2.685 1.899-4.27 2.484.237.117.464.29.664.518l3.15 3.4c.79.895.645 1.755-.133 2.453a23.235 23.235 0 013.818 14.955 23.233 23.233 0 01-2.769 9.168l.144.104.304.245c.636.644.55 1.6-.142 2.333l-2.398 2.653c.056.018.114.035.175.05 1.639.6 3.217 1.29 4.422 2.541l4.371 5.17c1.049 1.44 1.035 3.03.155 3.781-1.031 1.02-2.83.667-4.038-.562l-3.789-4.169c-.591-.634-1.046-1.193-1.369-1.996-.444-1.142-.759-2.317-1.038-3.459a4.972 4.972 0 00-.05-.19c-.624.4-1.258.307-1.84-.159-4.608 4.04-10.79 6.265-17.37 5.689a23.162 23.162 0 01-13.13-5.527.076.076 0 00-.01.01c-.53.538-1.238.593-1.858.248-.275 1.12-.585 2.27-1.02 3.388-.323.803-.777 1.362-1.369 1.996l-3.789 4.169c-1.207 1.23-3.006 1.582-4.038.562zM42.582 48.2l-5.044-5.65A14.74 14.74 0 0126.6 46.082a14.716 14.716 0 01-8.292-3.47l-4.967 5.716a22.236 22.236 0 0012.6 5.303c6.3.552 12.22-1.572 16.642-5.43zm-15.613 2.702c-.224-.235-.333-.554-.332-.95 0-.397.111-.716.335-.95.225-.234.53-.349.91-.348.381 0 .687.116.91.351.225.235.334.554.334.95-.001.397-.11.715-.336.95-.225.234-.53.349-.912.348-.38 0-.685-.116-.909-.351zm-.826.253l-.96-.14a.05.05 0 01-.042-.057l.034-.235a.05.05 0 01.056-.042l.186.027.114-.776-.854-.125-.112.777.186.027a.05.05 0 01.042.056l-.034.236a.05.05 0 01-.057.041l-.96-.14a.05.05 0 01-.043-.056l.034-.236a.05.05 0 01.057-.042l.186.028.26-1.787-.186-.028a.05.05 0 01-.042-.056l.034-.236a.05.05 0 01.056-.041l.962.14a.05.05 0 01.041.056l-.034.236a.05.05 0 01-.055.042l-.188-.028-.098.678.853.124.1-.677-.188-.027a.05.05 0 01-.04-.056l.034-.236a.05.05 0 01.055-.042l.962.14a.05.05 0 01.042.057l-.035.235a.051.051 0 01-.056.042l-.187-.027-.26 1.787.186.027a.05.05 0 01.042.056l-.034.236a.05.05 0 01-.057.042zm3.411-.047l-.031-.236a.05.05 0 01.042-.055l.187-.026-.244-1.79-.187.026a.048.048 0 01-.055-.042l-.033-.236a.05.05 0 01.042-.056l1.016-.139c.26-.035.474-.011.637.08a.568.568 0 01.29.446.759.759 0 01-.062.452.74.74 0 01-.222.26l-.054.034.68.718.134-.018a.049.049 0 01.055.042l.033.236a.05.05 0 01-.042.055l-.606.083a.051.051 0 01-.045-.017l-.755-.9-.105.015.092.673.149-.02a.05.05 0 01.055.042l.032.236a.049.049 0 01-.042.056l-.904.124a.05.05 0 01-.057-.043zm-1.229-.447c.115-.174.175-.408.175-.706.002-.3-.058-.535-.172-.709-.115-.172-.261-.255-.446-.255-.183 0-.329.082-.444.254-.116.173-.175.408-.176.707 0 .3.06.535.174.709a.51.51 0 00.444.255c.183 0 .33-.082.445-.255zm3.808.066l-.061-.23a.048.048 0 01.034-.061l.183-.049-.463-1.745-.182.048a.05.05 0 01-.06-.035l-.061-.23a.048.048 0 01.034-.06l1.667-.444a.05.05 0 01.06.035l.123.46a.05.05 0 01-.036.061l-.249.066a.05.05 0 01-.06-.035l-.048-.182-.614.163.178.671.383-.102-.027-.106a.05.05 0 01.035-.06l.23-.062a.05.05 0 01.06.035l.144.538a.05.05 0 01-.036.06l-.23.062a.048.048 0 01-.06-.035l-.029-.106-.383.102.194.73.685-.182-.054-.203a.05.05 0 01.035-.06l.25-.067a.048.048 0 01.06.035l.133.5a.05.05 0 01-.036.06l-1.739.463a.05.05 0 01-.06-.035zm-9.766-.23a2.301 2.301 0 01-.308-.11 3.695 3.695 0 01-.332-.166.049.049 0 01-.024-.056l.14-.509a.049.049 0 01.06-.034l.268.073a.05.05 0 01.036.06l-.058.212.07.07c.031.026.061.049.089.069.058.04.113.066.166.08a.365.365 0 00.267-.014.278.278 0 00.148-.186.348.348 0 00-.001-.22.837.837 0 00-.194-.248l-.13-.127c-.178-.173-.302-.33-.364-.47a.625.625 0 01-.034-.434.658.658 0 01.357-.437.849.849 0 01.611-.038 2.483 2.483 0 01.654.283.05.05 0 01.02.055l-.127.466a.049.049 0 01-.06.034l-.268-.073a.049.049 0 01-.035-.061l.052-.192-.058-.057a.736.736 0 00-.078-.06.531.531 0 00-.155-.072.266.266 0 00-.212.026.27.27 0 00-.13.172.236.236 0 00.011.17.98.98 0 00.191.24l.13.133c.19.19.317.353.377.489a.65.65 0 01.028.44.685.685 0 01-.4.472c-.203.088-.44.093-.707.02zm7.818-.782l.033-.004c.173-.024.288-.081.355-.164.066-.083.093-.2.07-.361-.015-.117-.061-.192-.13-.236-.072-.044-.179-.061-.328-.041l-.108.015.108.791zm-17.78-1.214l.01-.013 5.577-6.42c.337-.413.425-1.006-.08-1.519l-1.948-2.146c-.288-.335-.623-.45-.99-.362l-.368.151-6.835 5.12c-.66.526-.774 1.052-.198 1.704l3.149 3.4c.581.655 1.257.635 1.682.085zm32.68-.259l3.108-3.437c.6-.637.523-1.31-.06-1.686l-.015-.01-6.874-5.003c-.441-.3-1.038-.336-1.504.212l-1.967 2.13c-.309.318-.393.66-.273 1.02l.182.354 5.689 6.371c.582.613 1.116.68 1.714.05zm-33.267-2.76l-1.154-1.161a.1.1 0 010-.14l.285-.283a.099.099 0 01.14 0l.211.214 2.106-2.097-.577-.581-.238.235a.099.099 0 01-.14 0l-.306-.309a.1.1 0 010-.14l.614-.61a.099.099 0 01.14 0l2.635 2.65a.1.1 0 010 .14l-.615.612a.099.099 0 01-.14 0l-.303-.308a.097.097 0 010-.14l.235-.235-.577-.581-2.105 2.097.212.214a.099.099 0 010 .14l-.283.282a.099.099 0 01-.14 0zm31.666-.087l-.678-.572a.1.1 0 01-.012-.14l.302-.357a.1.1 0 01.14-.012l.27.23.317-.14a.92.92 0 00.236-.193.6.6 0 00.163-.41.452.452 0 00-.174-.343.573.573 0 00-.328-.152c-.108-.004-.275.032-.509.121l-.284.11c-.392.15-.72.228-.98.224a1.07 1.07 0 01-.696-.257 1.12 1.12 0 01-.419-.866c-.007-.345.123-.67.377-.97a4.3 4.3 0 01.896-.803.099.099 0 01.118.007l.62.524a.098.098 0 01.011.139l-.3.358a.1.1 0 01-.14.012l-.246-.208-.265.119a.885.885 0 00-.217.183.43.43 0 00-.104.331c.01.126.063.228.162.311.08.068.164.098.26.097.1 0 .264-.037.493-.121l.295-.106c.425-.155.766-.235 1.018-.231.258.004.492.097.7.272.302.254.451.575.443.956-.01.378-.171.747-.473 1.105-.112.133-.24.264-.387.395a6.11 6.11 0 01-.488.392.098.098 0 01-.12-.005zm-11.168-1.479l.527-.4.525-.398c.409-.311.5-.67.363-1.204l-.004-.018-.007-.016a35.28 35.28 0 00-2.246-4.602h3.236l2.546 2.858c.028-.032.057-.064.087-.095l.115-.125-4.544-5.1c.24-.33.471-.66.154-.219.232-.323.445-.628.539-.764l-.374.53c.425-.613.489-.698.374-.53l.004-.006 4.558 5.318.203-.22-1.413-1.647h.08c-.366-1.787-.098-4.026 2.11-4.8l.198-.057-.006-.01c-.678-1.079-.62-2.383-.035-3.486l.16-.257-.075-.02c-1.505-.484-2.125-1.63-1.57-3.327l.037-.101-.329-.002c-1.697-.082-3.23-.775-4.18-2.198l-2.297 2.68.106 3.065-.135.126a34.28 34.28 0 01-.528.505c.108-.104.165-.157-.036.033l.036-.034-.02.019-.005.004-.001.003a.015.015 0 00-.006.004l-.002.003.001-.002-.003.003.002-.001-.007.006.001-.002a27.332 27.332 0 00-.358.354l-.223-6.669a.197.197 0 01.393-.017l.21 6.311-.023.023.007-.007c.035-.034.063-.061-.007.006.157-.151.142-.137.018-.017l.306-.295a.248.248 0 00.008-.007l-.01.009-.213-6.17a.214.214 0 01.02-.095c-.43-.579-1.147-.998-2.668-.97-1.521-.028-2.238.391-2.669.97.015.03.021.062.02.095l-.186 5.39c-.125-.13-.252-.257-.38-.38l.085-2.454-2.21-2.58c-.947 1.485-2.508 2.205-4.24 2.289l-.331.002.037.1c.557 1.699-.066 2.845-1.57 3.327l-.073.021.16.258c.583 1.102.642 2.406-.035 3.484l-.008.01.202.058c2.216.773 2.569 3.013 2.206 4.8h.118l-1.601 1.867.2.222 4.345-5.068c.239.32.477.637.717.95l-4.36 4.891.002.001c.072.074.137.15.193.227l2.754-3.09h3.003a24.602 24.602 0 00-.857 1.65c-.69 1.333-1.213 2.222-1.735 3.639a1.311 1.311 0 00-.08.444c.002.13.03.243.073.343.089.2.243.346.393.467.291.237.703.48 1.304.116 1.276-.807 2.035-1.504 3.194-2.458.312-.237.62-.485.883-.704a34.482 34.482 0 003.562 3.146l.013.01.016.01c.477.276.847.286 1.256-.025zm-1.114-.22c-3.332-2.534-6.44-6.068-9.428-10.162-1.9-2.452-2.79-4.8-2.546-7.158.01-.13.027-.227.054-.302a.296.296 0 01.445-.338c.08-.005.177.003.306.03 2.333.4 4.351 1.893 6.196 4.387 3.132 3.984 5.69 7.936 7.228 11.83.114.448.04.68-.26.909l-.456.346a.287.287 0 01-.14.107l-.455.346c-.302.228-.544.236-.944.005zm-8.93-.104c-.251-.204-.463-.434-.293-.926.514-1.392 1.023-2.257 1.722-3.608.246-.522.515-1.04.802-1.552l.345.409c-1.215 2.101-1.859 3.7-2.017 4.221-.108.345.444-.181 1.23-1.02l1.723-2.13.151.169-1.7 2.102c-.654.946-1.053 1.595-.739 1.418.732-.384 1.93-1.201 3.388-2.5.123.13.249.26.375.388-.282.236-.566.465-.855.685-1.174.966-1.913 1.645-3.166 2.438-.445.27-.714.11-.966-.094zm8.775-.727a.285.285 0 00.1-.307l1.306-.991a.284.284 0 10-.11-.348l-.836.12.427-.973a.284.284 0 00.192-.453.283.283 0 00-.422-.034c-.826-2.37-3.108-5.499-5.453-8.66-.512-.678-1.192-.636-1.643-.294l-.59.448 5.837 7.708 1.683 1.154-1.5 1.14-.656-1.936-5.837-7.707-.59.448c-.45.343-.675.986-.16 1.663 2.406 3.115 4.799 6.159 6.855 7.596l-.026.017a.284.284 0 10.448.287l1.11-.159-.34.774a.284.284 0 10.206.507zm-.003-.478l.368-.836.904-.129-1.272.965zM8.32 42.16l5.955-4.46a.247.247 0 01.03-.02c.06-.034.119-.064.178-.091a14.748 14.748 0 01-1.33-7.554c.21-2.422.994-4.658 2.206-6.584l-6.131-4.464A22.297 22.297 0 005.61 29.375 22.299 22.299 0 008.32 42.16zm41.847-8.883a22.316 22.316 0 00-3.63-14.307l-6.077 4.55a14.75 14.75 0 012.167 9.097 14.784 14.784 0 01-1.279 4.866c.083.04.163.087.239.138l5.978 4.354a22.316 22.316 0 002.602-8.698zM30.16 41.53l1.572-1.193-.455 1.034-1.117.16zm-13.562-4.286c.686-2.102-.028-3.843-2.405-4.143a13.737 13.737 0 001.232 4.177h1.165a.156.156 0 01.008-.034zm-.444-4.517a.198.198 0 01-.114-.312c.848-1.113.725-2.592-.109-3.752a.199.199 0 01.115-.308c1.61-.383 2.235-1.443 1.494-3.256a.197.197 0 01.19-.273c1.868.068 3.6-.593 4.575-2.211l-.573-.668c-.958 1.836-2.93 2.536-4.845 2.335l-.14-.02.01.018c.89 1.796-.143 3.65-1.929 3.975h-.009l.021.026c1.095 1.393 1.013 3.134-.063 4.286l-.203.196.04.006c2.335.466 3.052 2.366 2.388 4.509h1.518c.4-1.837.008-4.008-2.366-4.55zm25.097.042l.04-.006-.204-.196c-1.075-1.152-1.157-2.893-.063-4.286l.022-.025-.009-.001c-1.786-.326-2.82-2.18-1.93-3.975l.01-.019-.14.022c-1.883.196-3.816-.477-4.792-2.238l-.567.662c.983 1.55 2.686 2.185 4.518 2.119a.198.198 0 01.19.273c-.74 1.811-.12 2.873 1.492 3.256a.198.198 0 01.117.308c-.834 1.16-.957 2.639-.11 3.752a.198.198 0 01-.113.312c-2.362.54-2.672 2.695-2.269 4.55h1.42c-.666-2.147.057-4.043 2.388-4.508zm.332.344c-2.3.332-2.996 2.049-2.316 4.13a.156.156 0 01.007.035h1.082a13.752 13.752 0 001.227-4.165zM30.77 36.095c2.423-3.024 4.225-5.64 5.315-8.782.006-.154.08-.244-.259-.03l-1.74 1.788-4.36 5.395-.131-.194 4.317-5.341 1.385-2.078c.138-.376.065-.286-.083-.246-2.173 1.335-4.503 3.557-6.697 6.114a93.647 93.647 0 00-.319-.441c2.334-2.738 4.874-4.95 6.71-6.103.945-.616 1.493-.591 1.747-.386l.007.006c.254.206.392.738-.012 1.79-.85 2.334-2.862 5.856-5.54 9.068-.112-.186-.224-.373-.34-.56zm16.467-2.072l-.473-.054a.05.05 0 01-.043-.054l.029-.256a.05.05 0 01.055-.044l.187.022.071-.632-.689-.078-.044.395.109.012a.05.05 0 01.043.055l-.026.236a.05.05 0 01-.055.044l-.552-.063a.049.049 0 01-.044-.055l.027-.236a.05.05 0 01.055-.044l.108.013.045-.395-.75-.086-.08.706.208.023a.048.048 0 01.043.055l-.029.257a.049.049 0 01-.054.044l-.512-.058a.048.048 0 01-.044-.055l.203-1.79a.049.049 0 01.054-.044l.237.027a.05.05 0 01.044.054l-.021.188 1.792.204.02-.188a.05.05 0 01.056-.044l.236.027a.05.05 0 01.043.055l-.195 1.716a.048.048 0 01-.054.043zm-36.332-.628l-.01-.106-2.2-.672a.05.05 0 01-.035-.043l-.03-.372a.049.049 0 01.027-.049l2.066-1.015-.008-.105a.048.048 0 01.045-.053l.237-.02a.048.048 0 01.053.046l.07.886a.048.048 0 01-.044.053l-.237.02a.048.048 0 01-.053-.046l-.013-.165-.341.168.07.885.365.11-.014-.164a.048.048 0 01.045-.054l.237-.019a.048.048 0 01.053.045l.053.643a.05.05 0 01-.046.053l-.238.02a.049.049 0 01-.052-.046zm-.758-.697l-.049-.61-.745.368.794.242zm4.253-4.33a13.956 13.956 0 00-.26 4.248c1.3-1.017 1.495-2.837.26-4.248zm26.998.079c-1.047 1.262-.977 2.828.248 4.082.054-2.193-.05-3.153-.248-4.082zm-19.613 3.437a.283.283 0 00.1-.307l2.358-1.79a.283.283 0 10-.125-.298l-1.524.23.43-.96a.283.283 0 10-.293-.39l-1.05.15.34-.774a.284.284 0 00.192-.452.283.283 0 00-.495.252l-1.307.992a.284.284 0 00-.377.41.283.283 0 00.487-.062l.837-.12-.453 1.028a.282.282 0 00-.241.454.283.283 0 00.501-.113l1.1-.165-.633 1.407a.284.284 0 00-.244.454.283.283 0 00.397.054zm23.268-.033l-.012-.973a.05.05 0 01.049-.05l.238-.002c.028 0 .05.021.05.048l.002.189.784-.01-.01-.863-.785.01.003.188a.05.05 0 01-.049.05l-.237.003a.049.049 0 01-.05-.048l-.012-.973a.048.048 0 01.049-.05l.237-.003c.028 0 .05.021.05.049l.003.188 1.803-.022-.002-.188a.05.05 0 01.048-.05l.239-.003a.05.05 0 01.05.048l.012.973a.05.05 0 01-.049.05l-.239.003a.049.049 0 01-.048-.049l-.003-.189-.684.009.01.863.685-.008-.003-.189a.05.05 0 01.049-.05l.238-.003a.05.05 0 01.049.049l.013.973a.05.05 0 01-.049.05l-.238.003a.049.049 0 01-.05-.05l-.003-.188-1.803.022.002.189a.05.05 0 01-.049.05l-.238.003a.05.05 0 01-.05-.049zm-16.697-.204l-.163-9.084a.196.196 0 01.393-.009l.155 8.66c-.13.143-.257.287-.385.433zm-6.494-.302l.635-1.411 1.529-.23-2.164 1.641zm5.203-.578l.148-8.212a.196.196 0 01.392.008l-.156 8.707a70.778 70.778 0 00-.384-.503zm-17.927.003l-.513-.036a.05.05 0 01-.046-.053l.158-2.218a.049.049 0 01.053-.046l.513.036a.049.049 0 01.046.053l-.019.257a.049.049 0 01-.052.046l-.207-.015-.036.505 1.78.127.013-.188a.05.05 0 01.053-.046l.237.017a.05.05 0 01.046.053l-.068.97a.05.05 0 01-.053.047l-.238-.017a.049.049 0 01-.045-.053l.013-.188-1.78-.127-.037.505.208.014a.049.049 0 01.045.053l-.018.259a.049.049 0 01-.053.045zm20.17-.17l-.227-7.916a.196.196 0 11.393-.014l.217 7.53c-.128.132-.254.265-.382.4zm-2.853-.619a25.24 25.24 0 00-.328-.431l.198-6.88a.196.196 0 11.392.014l-.212 7.36-.05-.063zm-5.341-.076a.563.563 0 00-.028-.032l.502-1.14 1.137-.163a.283.283 0 00.106.14l-.47 1.044-1.224.185a.346.346 0 00-.023-.034zm9.341-.47l.001-.002c.003-.003.004-.004 0 .001zm0 0v-.001c.01-.011.012-.012 0 0l.007-.007-.007.007zm.015-.014l-.004.003v-.002c0 .001 0 .002-.002.002l.006-.003zm-.003.001l.003-.002.003-.004-.006.006zm.003-.002v-.002c.008-.006.01-.009.006-.004l-.006.006zm.31-.3l.244-.23c.053-.05-.049.043-.237.224.124-.118.239-.226-.008.007zm16.067-.088l-.04-.254a.05.05 0 01.04-.057l.206-.032-.08-.5-1.762.279.029.186a.048.048 0 01-.04.057l-.235.037a.05.05 0 01-.057-.041l-.151-.962a.05.05 0 01.04-.056l.235-.038a.049.049 0 01.056.041l.03.187 1.764-.279-.08-.5-.205.033a.05.05 0 01-.057-.042l-.04-.256a.05.05 0 01.042-.056l.507-.08a.05.05 0 01.057.04l.346 2.197a.05.05 0 01-.04.057l-.51.08a.048.048 0 01-.055-.04zm-21.501-.406l.184-5.525a.197.197 0 01.393.016l-.198 5.94a14.648 14.648 0 00-.38-.431zm-4.798.055l1.27-.965-.367.836-.903.13zm-4.342-4.567a.197.197 0 01-.033-.108 13.731 13.731 0 00-1.662 3.892c1.795-.157 2.844-2.039 1.695-3.784zm23.452.002c-1.13 1.715-.133 3.564 1.61 3.774-.392-1.527-1.038-2.958-1.61-3.774zm-8.663-.105l1.816-2.037c-.382-.991-.548-2.224-.422-3.721a10.58 10.58 0 00-.175-.06l.016 2.852c0 .006 0 .012-.002.017-.06.75-.454 1.242-.895 1.65l-.372.319.034.98zm7.937-.12a1.662 1.662 0 01-.8-.536l-1.935-2.132a1.725 1.725 0 01-.498-.942l-1.237 1.442c.868 1.713 2.68 2.356 4.47 2.167zm-17.48-2.27l-1.115-1.301c-.046.314-.2.622-.472.902L17.91 23.34a1.732 1.732 0 01-.836.564c1.774.144 3.552-.537 4.378-2.282zm3.392 2.207l.026-.797-.371-.32c-.442-.406-.834-.9-.896-1.648v-.017l.014-2.87-.143.049c.125 1.455-.024 2.662-.378 3.64l1.748 1.963zm-7.375-.883l1.965-2.13c.308-.318.393-.66.273-1.019l-.182-.355-5.689-6.371c-.582-.612-1.116-.679-1.714-.049l-3.108 3.437c-.6.637-.523 1.31.062 1.686l.013.01 6.874 5.003c.441.3 1.04.336 1.506-.212zm22.097.378l.369-.15 6.835-5.12c.66-.527.773-1.053.199-1.705l-3.15-3.4c-.582-.654-1.257-.635-1.683-.085l-.01.013-5.578 6.42c-.337.413-.425 1.006.08 1.519l1.948 2.147c.29.335.623.449.99.36zm-6.457-1.684l.633-.71c-.168-.635-.238-1.366-.187-2.197l.002-.016a13.437 13.437 0 00-.782-.324c-.099 1.293.032 2.369.334 3.247zm-10.021-3.277c-.267.099-.529.206-.788.321a.15.15 0 01.009.049c.049.78-.01 1.47-.155 2.077l.64.718c.278-.864.393-1.913.294-3.165zM41.29 21.05l-.96-1.146a.098.098 0 01.012-.14l.306-.257a.1.1 0 01.14.012l.164.196.286-.532-.944-1.128-.574.192.165.196a.1.1 0 01-.012.139l-.307.258a.1.1 0 01-.14-.013l-.695-.83a.1.1 0 01.013-.14l.306-.257a.1.1 0 01.14.012l.107.13 3.662-1.222a.097.097 0 01.106.03l.404.48c.026.032.03.076.01.111l-1.838 3.397.107.127a.1.1 0 01-.013.14l-.306.257a.1.1 0 01-.14-.012zm-13.376-1.69c1.804 0 3.289.532 3.92 1.489l-.019-3.49c-.034-.784-1.035-1.814-3.89-1.814h-.057c-2.855 0-3.82 1.028-3.856 1.813l-.019 3.49c.631-.956 2.116-1.489 3.921-1.489zm6.146 1.208l.964-1.08c-.351-.213-.712-.41-1.084-.591a6.625 6.625 0 00.12 1.671zm-20.833-.81c-.485-.484-.737-1.002-.737-1.552s.253-1.07.738-1.555a4.97 4.97 0 01.49-.428c.178-.136.37-.267.579-.392a.1.1 0 01.12.014l.592.594c.04.038.04.1 0 .14l-.305.306a.098.098 0 01-.132.007l-.266-.215-.337.15a1.55 1.55 0 00-.311.241.946.946 0 00-.288.868c.056.339.257.691.622 1.056.35.351.705.535 1.065.567.356.031.673-.09.956-.373a2.4 2.4 0 00.593-.995.1.1 0 01.165-.04l.336.337c.027.028.037.07.02.107a3.41 3.41 0 01-.77 1.15c-.486.487-1.009.74-1.568.743-.558.003-1.08-.246-1.562-.73zm8.691-.9a14 14 0 00-1.02.545l.927 1.04a6.734 6.734 0 00.093-1.584zm13.772-.118l5.088-5.71a22.227 22.227 0 00-10.942-4.008 22.25 22.25 0 00-14.7 3.915l5.095 5.717a14.79 14.79 0 013.413-1.52c.198-1.063 1.527-1.981 4.221-1.981l.057-.001c2.709 0 4.074.928 4.264 1.999 1.25.379 2.425.917 3.504 1.589zm-10.329-.174a.197.197 0 01.084-.265c.617-.321 1.497-.478 2.39-.48.896-.003 1.832.15 2.561.475a.196.196 0 11-.158.36c-.668-.297-1.545-.445-2.401-.443-.86.002-1.671.155-2.211.437a.196.196 0 01-.265-.084zm16.19.035l.636-1.177-1.266.422.63.755zm-13.684-1.542c-.285 0-.563.014-.816.04a4.157 4.157 0 00-.654.113.197.197 0 01-.105-.379c.206-.056.452-.097.72-.125.267-.027.558-.041.855-.041.589-.001 1.204.052 1.686.165a.197.197 0 11-.09.382c-.442-.104-1.026-.155-1.596-.155zm-8.827-.933c-.318-.09-.573-.315-.77-.669-.196-.355-.254-.69-.166-1 .09-.312.316-.566.672-.763.11-.06.225-.115.35-.164a4.21 4.21 0 01.393-.13.05.05 0 01.057.025l.241.436a.05.05 0 01-.02.067l-.224.125a.05.05 0 01-.064-.014l-.122-.173-.102.008a.952.952 0 00-.34.112.571.571 0 00-.311.456c-.024.206.034.442.183.712.144.26.319.424.52.503a.7.7 0 00.617-.057c.2-.112.369-.27.505-.475a.05.05 0 01.084.004l.137.247a.05.05 0 01-.004.055 2.033 2.033 0 01-.626.528c-.356.198-.694.256-1.01.167zm17.015-.175c-.09-.05-.18-.109-.274-.178a3.703 3.703 0 01-.286-.238.051.051 0 01-.01-.06l.254-.463a.05.05 0 01.067-.02l.244.133a.05.05 0 01.02.068l-.106.192.054.084a.967.967 0 00.07.088c.047.052.095.09.142.117a.368.368 0 00.265.048.28.28 0 00.186-.147.36.36 0 00.05-.216.868.868 0 00-.132-.286l-.099-.152c-.133-.21-.216-.391-.245-.542a.627.627 0 01.068-.43.653.653 0 01.448-.343.846.846 0 01.602.104 2.514 2.514 0 01.572.426c.014.015.018.04.007.059l-.23.423a.05.05 0 01-.067.02l-.244-.133a.049.049 0 01-.02-.068l.095-.175-.045-.069a.548.548 0 00-.196-.183.266.266 0 00-.212-.022.273.273 0 00-.168.137.24.24 0 00-.026.169.996.996 0 00.13.277l.097.159c.14.229.226.417.254.563a.642.642 0 01-.074.435.685.685 0 01-.498.367c-.219.04-.45-.011-.693-.144zm-15.29-.524l-.086-.222a.05.05 0 01.029-.064l.098-.039.015-2.303c0-.02.012-.039.032-.046l.346-.135a.048.048 0 01.054.013l1.563 1.69.097-.037a.05.05 0 01.065.028l.085.222a.049.049 0 01-.027.064l-.83.322a.049.049 0 01-.062-.028l-.087-.223a.05.05 0 01.029-.064l.154-.06-.258-.278-.826.321-.003.38.154-.06a.05.05 0 01.065.028l.085.222a.05.05 0 01-.027.064l-.601.233a.049.049 0 01-.063-.028zm13.768-.2c-.376-.152-.636-.377-.766-.68-.132-.302-.119-.642.031-1.018.15-.377.372-.634.67-.762.297-.127.636-.112 1.014.04.116.046.232.101.347.166.115.065.233.14.349.224a.048.048 0 01.017.059l-.185.463a.05.05 0 01-.064.027l-.239-.095a.05.05 0 01-.029-.06l.057-.203-.071-.074a.955.955 0 00-.302-.193.571.571 0 00-.55.048c-.173.11-.32.306-.434.592-.11.276-.128.515-.06.722.068.205.21.352.434.441.212.086.441.116.687.092a.049.049 0 01.05.068l-.105.263a.05.05 0 01-.044.03 2.026 2.026 0 01-.807-.15zm-1.315-.552l-.932-.27a.046.046 0 01-.03-.024l-.002-.013-.032.006-1.774-.353a.048.048 0 01-.038-.058l.046-.234a.049.049 0 01.058-.039l.184.037.352-1.772-.186-.036a.05.05 0 01-.038-.059l.046-.233a.05.05 0 01.058-.039l.954.19a.05.05 0 01.038.058l-.046.233a.05.05 0 01-.058.039l-.186-.037-.346 1.753.703.14.041-.206a.05.05 0 01.058-.038l.254.05a.05.05 0 01.04.058l-.055.276.015-.019a.048.048 0 01.037-.004l.182.052.5-1.734-.18-.053a.05.05 0 01-.034-.061l.067-.229a.048.048 0 01.06-.034l.934.27a.05.05 0 01.034.062l-.066.229a.05.05 0 01-.062.034l-.18-.053-.502 1.735.18.053a.05.05 0 01.034.06l-.066.23a.05.05 0 01-.062.033zm-9.605-.26l-.056-.231a.05.05 0 01.037-.06l.183-.043-.41-1.74-.492.117.047.203a.05.05 0 01-.037.06l-.251.059a.05.05 0 01-.06-.037l-.118-.5a.05.05 0 01.037-.06l2.16-.513a.049.049 0 01.06.037l.118.5a.049.049 0 01-.035.06l-.25.06a.048.048 0 01-.06-.037l-.049-.202-.491.116.411 1.74.183-.044a.048.048 0 01.06.036l.055.232a.05.05 0 01-.037.06l-.946.224a.05.05 0 01-.06-.037zm-2.456-.2l.57-.221-.565-.61-.005.831zm4.11-.194l-.022-.237a.05.05 0 01.045-.054l.187-.017-.17-1.798-.187.017a.05.05 0 01-.054-.044l-.023-.238a.05.05 0 01.045-.053l.967-.092a.05.05 0 01.054.045l.023.237a.05.05 0 01-.045.054l-.187.018.063.681.86-.081-.066-.682-.187.018a.05.05 0 01-.054-.044l-.022-.237a.05.05 0 01.045-.054l.967-.092a.05.05 0 01.054.045l.022.237a.05.05 0 01-.044.054l-.189.018.17 1.798.188-.018a.05.05 0 01.054.045l.021.237a.05.05 0 01-.043.054l-.967.091a.05.05 0 01-.054-.045l-.022-.237a.05.05 0 01.043-.054l.189-.017-.074-.781-.86.08.075.782.188-.018a.051.051 0 01.054.045l.022.237a.051.051 0 01-.044.054l-.968.091a.05.05 0 01-.054-.045zm2.937-.452c-.21-.247-.3-.571-.278-.967.024-.396.152-.708.389-.93.237-.22.548-.318.929-.296.38.022.677.155.888.402.21.247.301.572.279.968-.022.396-.152.708-.389.929-.238.221-.55.318-.93.296-.38-.022-.677-.154-.888-.402zm1.368-.163c.125-.168.197-.398.214-.696.018-.3-.029-.537-.133-.717-.104-.179-.246-.27-.43-.28a.512.512 0 00-.458.228c-.123.167-.197.398-.214.697-.017.299.029.537.133.717.104.178.246.27.428.28a.51.51 0 00.46-.23z" fill="#013354"/></svg>