<svg width="202" height="216" fill="none" xmlns="http://www.w3.org/2000/svg"><path fill-rule="evenodd" clip-rule="evenodd" d="M16.904 105.458c4.04-46.164 44.815-80.353 91.018-76.314 46.198 4.039 80.416 44.783 76.371 90.947-4.039 46.163-44.815 80.352-91.018 76.314-46.198-4.039-80.416-44.784-76.371-90.947z" fill="#263696"/><path fill-rule="evenodd" clip-rule="evenodd" d="M20.24 105.748c3.883-44.323 43.033-77.148 87.388-73.27 44.359 3.877 77.212 42.997 73.33 87.32-3.878 44.323-43.029 77.149-87.388 73.271s-77.212-42.998-73.33-87.321z" fill="#D81D17"/><path d="M37.716 118.241l1.677.511-.071-.857.855-.068.186 2.312-.856.069-.038-.504-8.055-2.453-.11-1.34 7.557-3.707-.038-.498.855-.069.257 3.19-.855.069-.067-.856-1.573.775.276 3.426zm-.918-.28l-.218-2.721-3.332 1.641 3.55 1.08zm-4.528-10.534l-.158 2.173.927.065-.066.931-1.849-.132.566-7.985 1.853.131-.067.925-.926-.066-.152 2.173 6.777.482.061-.856.856.061-.252 3.496-.856-.061.062-.855-6.777-.482zm42.173-51.986a7.108 7.108 0 01-2.2 1.857c-1.255.695-2.424.89-3.512.585-1.088-.306-1.977-1.08-2.666-2.323-.694-1.25-.889-2.406-.58-3.469.304-1.063 1.084-1.942 2.333-2.637.39-.213.799-.406 1.24-.58a13.24 13.24 0 011.403-.458l.87 1.57-.809.45-.499-.705c-.327.01-.641.055-.936.132a3.517 3.517 0 00-.831.332c-.713.395-1.117.987-1.212 1.776-.095.79.133 1.68.684 2.67.532.959 1.188 1.588 1.968 1.889.779.3 1.573.229 2.371-.215a5.345 5.345 0 001.882-1.765l.494.891zm1.691-3.046l-.01 1.75.804-.311.309.8-2.163.839-.313-.8.47-.182.053-8.415 1.254-.486 5.717 6.178.466-.18.309.798-2.985 1.158-.313-.799.803-.31-1.193-1.284-3.208 1.244zm.01-.96l2.547-.988-2.528-2.718-.02 3.706zm8.279-7.22l-2.12.502.214.901-.908.216-.427-1.804 7.794-1.845.427 1.803-.903.214-.213-.902-2.12.502 1.564 6.606.836-.197.2.834-3.417.807-.195-.833.831-.198-1.563-6.606zm9.157 1.975l.3 3.167.85-.08.08.853-3.487.329-.081-.853.855-.081-.646-6.828-.855.08-.081-.853 3.493-.33.08.855-.855.08.266 2.809 3.45-.326-.266-2.809-.855.08-.08-.853 3.492-.329.076.854-.85.08.641 6.828.856-.08.08.853-3.488.33-.08-.854.855-.08-.3-3.166-3.45.325zm11.378 3.93c-1.331-.078-2.357-.54-3.079-1.386-.723-.846-1.041-1.965-.96-3.357.08-1.392.527-2.467 1.34-3.224.817-.758 1.886-1.098 3.217-1.02 1.331.077 2.362.538 3.084 1.385.723.846 1.046 1.965.96 3.357-.076 1.392-.527 2.467-1.345 3.224-.812.757-1.886 1.098-3.217 1.02zm.048-.857c.727.043 1.33-.256 1.81-.896.476-.64.746-1.507.813-2.601.062-1.1-.105-1.993-.509-2.681-.399-.69-.964-1.054-1.691-1.096-.728-.043-1.326.255-1.806.893-.476.638-.747 1.506-.808 2.604-.067 1.1.104 1.993.504 2.681.399.689.964 1.054 1.687 1.096zm11.267 2.308l-6.407-1.27.171-.841.841.167 1.336-6.727-.841-.167.166-.841 3.436.682-.166.84-.841-.166-1.322 6.659 2.89.574.18-.915.918.181-.361 1.824zm4.929-6.561l-1.906 6.587.822.239-.238.823-3.364-.974.237-.823.822.238 1.911-6.588-.827-.238.242-.823 3.365.974-.238.823-.826-.238zm6.273 10.172a7.16 7.16 0 01-2.838-.532c-1.33-.532-2.219-1.314-2.67-2.348-.452-1.035-.414-2.211.114-3.531.532-1.327 1.307-2.209 2.324-2.645 1.017-.436 2.19-.389 3.521.143.409.163.822.36 1.231.59.413.231.827.496 1.245.796l-.67 1.667-.86-.344.233-.83a4.274 4.274 0 00-.694-.642 3.624 3.624 0 00-.784-.434c-.761-.303-1.473-.24-2.144.186-.67.426-1.216 1.165-1.639 2.216-.404 1.019-.48 1.925-.219 2.72.262.794.818 1.36 1.668 1.7a5.36 5.36 0 002.557.34l-.375.948zm.689.613l.913-1.668.879.481-.428.783c.166.29.342.534.518.733.181.2.366.352.561.457.375.206.736.269 1.079.19.342-.08.603-.285.789-.618.171-.314.237-.61.199-.886-.043-.275-.214-.641-.504-1.1l-.351-.549c-.476-.748-.765-1.378-.861-1.887a2.08 2.08 0 01.224-1.43c.337-.618.836-1 1.497-1.147.66-.147 1.345-.028 2.048.357a8.67 8.67 0 011.06.677c.337.25.661.525.96.827l-.832 1.525-.879-.48.395-.722a3.33 3.33 0 00-.461-.636 2.092 2.092 0 00-.533-.419 1.127 1.127 0 00-.898-.096 1.146 1.146 0 00-.708.577c-.133.237-.171.48-.119.73.052.252.219.603.494 1.055l.347.572c.504.82.804 1.475.899 1.966.09.494.004.977-.252 1.448-.376.688-.932 1.098-1.668 1.23-.742.133-1.535-.033-2.386-.498a8.568 8.568 0 01-.97-.627 13.74 13.74 0 01-1.012-.845zm41.146 43.713l-.342-2.152-.917.145-.143-.921 1.83-.29 1.25 7.908-1.83.289-.147-.915.917-.145-.342-2.151-6.71 1.059.133.847-.846.134-.547-3.462.846-.134.133.847 6.715-1.06zm-2.656 8.996l-3.179.038.009.858-.86.011-.043-3.502.86-.011.01.858 6.862-.084-.009-.858.855-.011.048 3.502-.861.011-.009-.858-2.823.035.043 3.464 2.823-.035-.01-.857.856-.01.042 3.501-.855.01-.014-.857-6.863.084.01.858-.856.01-.042-3.501.855-.011.014.858 3.18-.04-.043-3.463zm-4.8 13.105l.731-6.446.856.097-.1.852 6.82.774.1-.852.85.097-.703 6.176-1.701-.194.099-.921.856.097.299-2.628-2.842-.322-.199 1.776.57.064-.1.852-1.991-.226.095-.852.57.065.205-1.776-3.061-.347-.328 2.892.927.105-.105.927-1.848-.21z" fill="#fff" stroke="#fff" stroke-width=".355" stroke-miterlimit="79.84" stroke-linecap="round" stroke-linejoin="round"/><path fill-rule="evenodd" clip-rule="evenodd" d="M47.44 108.126c2.566-29.321 28.466-51.036 57.812-48.471 29.342 2.565 51.075 28.445 48.508 57.766-2.566 29.321-28.467 51.037-57.813 48.472-29.341-2.565-51.074-28.445-48.508-57.767z" fill="#263696"/><path fill-rule="evenodd" clip-rule="evenodd" d="M50.98 108.437c2.394-27.37 26.57-47.638 53.963-45.244 27.388 2.394 47.671 26.55 45.276 53.919-2.395 27.369-26.571 47.638-53.959 45.244-27.393-2.394-47.676-26.55-45.28-53.919z" fill="#fff"/><path fill-rule="evenodd" clip-rule="evenodd" d="M64.29 148.207L76.798 134.2h48.404l12.389 13.879c-8.15 9.21-19.903 15.64-37.002 16.616-13.768-.641-26.314-5.447-36.299-16.488zm-2.39-2.829l9.6-11.178h2.433l-11.054 12.381a40.4 40.4 0 01-.98-1.203zm77.089 1.054L128.068 134.2h2.428l9.457 11.008c-.313.413-.636.821-.964 1.224zM54.79 134.2h13.891l-8.107 9.439c-2.068-2.818-4.002-5.956-5.784-9.439zm86.461 9.237l-7.937-9.237h13.259c-1.525 3.233-3.283 6.333-5.322 9.237z" fill="#263696"/><path fill-rule="evenodd" clip-rule="evenodd" d="M185.102 211.826l-13.668-15.006c-2.134-2.283-3.773-4.297-4.938-7.185-1.601-4.113-2.737-8.341-3.745-12.454-.812-3.323-2.086-4.745-3.184-6.097l-54.99-61.588-54.035-62.905c-1.597-1.454-3.013-2.488-5.237-3.073-5.912-2.154-11.605-4.639-15.95-9.146L13.588 15.764c-3.783-5.188-3.735-10.91-.56-13.616 3.72-3.671 10.213-2.401 14.566 2.026L41.26 19.18c2.133 2.283 3.773 4.297 4.937 7.185 1.602 4.113 2.733 8.341 3.745 12.454.808 3.323 2.087 4.745 3.18 6.097l54.995 61.588 54.035 62.905c1.596 1.454 3.008 2.488 5.237 3.073 5.912 2.154 11.605 4.639 15.949 9.147l15.768 18.607c3.783 5.188 3.736 10.909.561 13.616-3.721 3.671-10.213 2.401-14.566-2.026z" fill="#263696"/><path fill-rule="evenodd" clip-rule="evenodd" d="M16.9 211.826l13.668-15.006c2.134-2.283 3.774-4.297 4.938-7.185 1.602-4.113 2.733-8.341 3.745-12.454.808-3.323 2.086-4.745 3.18-6.097l54.994-61.588 54.035-62.905c1.597-1.454 3.008-2.488 5.237-3.073 5.912-2.154 11.606-4.639 15.95-9.146l15.768-18.608c3.783-5.188 3.735-10.91.561-13.616-3.726-3.671-10.213-2.401-14.571 2.026L160.742 19.18c-2.139 2.283-3.778 4.297-4.938 7.185-1.602 4.113-2.737 8.341-3.745 12.454-.813 3.323-2.091 4.745-3.184 6.097l-54.99 61.588-54.04 62.905c-1.592 1.454-3.008 2.488-5.233 3.073-5.912 2.154-11.605 4.639-15.949 9.147L2.895 200.236c-3.783 5.188-3.74 10.909-.56 13.616 3.72 3.671 10.212 2.401 14.565-2.026z" fill="#263696"/><path fill-rule="evenodd" clip-rule="evenodd" d="M31.727 58.524c-2.51 2.655-2.367 5.896.428 7.693l24.807 18.021c1.963 1.334 4.753 1.525 6.844-.926l7.067-7.646c1.872-1.923 1.886-4.18.418-6.315L50.689 46.328c-2.476-2.603-5.109-2.953-7.751-.179l-11.21 12.375z" fill="#fff" stroke="#263696" stroke-width="2.128" stroke-miterlimit="79.84" stroke-linecap="round" stroke-linejoin="round"/><path d="M61.458 66.808c-.594 1.474-1.497 2.815-2.704 4.023-1.706 1.704-3.507 2.56-5.403 2.57-1.901.008-3.693-.832-5.385-2.522-1.701-1.699-2.552-3.479-2.552-5.339 0-1.86.855-3.641 2.557-5.345a18.159 18.159 0 011.73-1.509 22.381 22.381 0 012.058-1.391l2.133 2.135-1.102 1.102-1.131-.909a6.96 6.96 0 00-1.45.647 5.94 5.94 0 00-1.193.922c-.97.969-1.35 2.113-1.135 3.433.213 1.32.998 2.652 2.343 3.998 1.306 1.305 2.656 2.019 4.058 2.143 1.402.124 2.647-.357 3.736-1.445 1.021-1.02 1.763-2.261 2.228-3.726l1.212 1.213z" fill="#263696" stroke="#263696" stroke-width="1.419" stroke-miterlimit="79.84" stroke-linecap="round" stroke-linejoin="round"/><path fill-rule="evenodd" clip-rule="evenodd" d="M158.849 45.897c-2.428-2.731-5.674-2.872-7.708-.245l-20.127 23.123c-1.501 1.837-1.934 4.598.328 6.894l7.005 7.702c1.754 2.03 4.002 2.242 6.259.965l24.751-18.5c2.809-2.24 3.388-4.83.851-7.7l-11.359-12.239z" fill="#fff" stroke="#263696" stroke-width="2.128" stroke-miterlimit="79.84" stroke-linecap="round" stroke-linejoin="round"/><path d="M145.467 64.585l-2.795.93.932 1.107-1.107.927-2.51-2.989 1.103-.927.546.651 13.44-4.476 1.45 1.73-6.749 12.44.542.644-1.102.927-3.465-4.123 1.107-.927.927 1.106 1.402-2.592-3.721-4.428zm1.53-.51l2.956 3.517 2.961-5.489-5.917 1.971z" fill="#263696" stroke="#263696" stroke-width="1.419" stroke-miterlimit="79.84" stroke-linecap="round" stroke-linejoin="round"/><path fill-rule="evenodd" clip-rule="evenodd" d="M174.624 162.023c2.514-2.655 2.371-5.896-.428-7.692l-24.808-18.022c-1.958-1.334-4.747-1.524-6.843.926l-7.067 7.646c-1.872 1.923-1.887 4.181-.418 6.315l20.602 23.024c2.48 2.602 5.113 2.952 7.751.178l11.211-12.375z" fill="#fff" stroke="#263696" stroke-width="2.128" stroke-miterlimit="79.84" stroke-linecap="round" stroke-linejoin="round"/><path d="M157.083 163.15l-2.443-2.06 1.084-1.288 1.15.967a7.387 7.387 0 001.383-.611c.389-.23.703-.485.941-.768.465-.551.689-1.122.674-1.713-.014-.591-.266-1.092-.755-1.502-.461-.39-.927-.599-1.393-.628-.47-.021-1.131.132-1.981.458l-1.027.399c-1.392.533-2.528.793-3.398.779a3.495 3.495 0 01-2.286-.843c-.908-.762-1.368-1.712-1.388-2.851-.023-1.139.404-2.225 1.274-3.257a14.839 14.839 0 013.16-2.82l2.234 1.884-1.088 1.289-1.055-.892c-.461.149-.86.33-1.203.541a3.496 3.496 0 00-.869.734 1.908 1.908 0 00-.461 1.453c.047.547.285 1 .713 1.36.347.293.736.438 1.164.433.432 0 1.069-.153 1.906-.458l1.059-.381c1.521-.553 2.705-.824 3.546-.813.846.016 1.611.315 2.305.897 1.007.85 1.497 1.904 1.468 3.162-.028 1.259-.57 2.511-1.62 3.757-.39.462-.846.923-1.364 1.384-.514.461-1.093.924-1.73 1.388z" fill="#263696" stroke="#263696" stroke-width="1.419" stroke-miterlimit="79.84" stroke-linecap="round" stroke-linejoin="round"/><path fill-rule="evenodd" clip-rule="evenodd" d="M37.882 175.013c2.428 2.731 5.674 2.872 7.708.245l20.131-23.123c1.497-1.836 1.935-4.597-.328-6.893l-7.01-7.702c-1.753-2.03-4-2.242-6.258-.965l-24.75 18.499c-2.81 2.24-3.39 4.83-.852 7.701l11.359 12.238z" fill="#fff" stroke="#263696" stroke-width="2.128" stroke-miterlimit="79.84" stroke-linecap="round" stroke-linejoin="round"/><path d="M48.86 151.255l-2.586-2.596-1.107 1.099-1.108-1.112 2.215-2.199 9.505 9.543-2.215 2.2-1.097-1.105 1.102-1.1-2.585-2.596-8.098 8.053 1.017 1.022-1.022 1.017-4.163-4.177 1.026-1.018 1.017 1.022 8.098-8.053z" fill="#263696" stroke="#263696" stroke-width="1.419" stroke-miterlimit="79.84" stroke-linecap="round" stroke-linejoin="round"/><path d="M78.459 180.641l.504-1.832.965.264-.233.861c.228.243.456.44.675.593.223.153.437.258.65.316.414.113.78.092 1.094-.064.313-.156.522-.416.622-.782.095-.346.09-.649-.01-.909-.104-.257-.351-.575-.74-.953l-.471-.454c-.637-.618-1.06-1.165-1.27-1.639a2.075 2.075 0 01-.118-1.443c.185-.677.585-1.164 1.198-1.46.608-.295 1.302-.337 2.076-.124a8.855 8.855 0 012.31.998l-.46 1.676-.966-.265.219-.793a3.39 3.39 0 00-.594-.513 2.101 2.101 0 00-.613-.285 1.128 1.128 0 00-.898.114c-.285.163-.47.404-.561.724-.071.261-.052.507.057.737.11.233.352.538.727.913l.47.476c.675.683 1.117 1.252 1.322 1.708.204.46.233.948.09 1.466-.21.756-.656 1.283-1.34 1.582-.69.298-1.497.32-2.433.064a8.265 8.265 0 01-1.089-.388 14.39 14.39 0 01-1.183-.588zm10.407-1.537l-.46 3.147.85.123-.124.849-3.469-.505.124-.849.85.124.989-6.787-.846-.123.123-.849 3.465.506-.124.848-.846-.124-.408 2.791 3.431.501.404-2.792-.846-.124.124-.848 3.469.505-.129.849-.845-.124-.994 6.786.851.124-.123.848-3.47-.505.124-.848.85.124.461-3.147-3.43-.5zm11.695 5.228c-1.33-.002-2.381-.406-3.151-1.21-.765-.804-1.15-1.904-1.145-3.298 0-1.394.385-2.492 1.155-3.294.774-.802 1.825-1.201 3.155-1.2 1.336.003 2.386.406 3.156 1.211.77.804 1.155 1.904 1.15 3.298 0 1.394-.39 2.491-1.16 3.294-.774.802-1.825 1.201-3.16 1.199zm.005-.857c.727.001 1.311-.331 1.753-.996.442-.666.661-1.547.666-2.643 0-1.101-.219-1.984-.656-2.649-.437-.665-1.022-.998-1.754-.999-.727-.001-1.307.33-1.749.993-.442.664-.665 1.546-.665 2.646 0 1.101.218 1.984.656 2.649.437.665 1.022.997 1.749.999zm8.274-3.483l.381 2.778.712-.098.115.85-3.261.445-.118-.85.85-.116-.926-6.795-.851.116-.119-.849 3.664-.5c.917-.125 1.649-.037 2.191.265.547.302.865.793.955 1.475.081.577.01 1.086-.209 1.525-.218.439-.589.807-1.112 1.105l2.666 2.804.57-.077.119.849-2.186.298-2.785-3.315-.656.09zm-.109-.815l.295-.041c.651-.088 1.112-.307 1.392-.655.281-.347.38-.826.295-1.434-.062-.459-.247-.785-.556-.977-.309-.191-.742-.249-1.298-.174l-.57.078.442 3.203zm13.625 1.727l-6.278 1.666-.218-.828.831-.22-1.763-6.629-.831.221-.219-.829 6.012-1.596.437 1.657-.894.238-.218-.829-2.562.679.737 2.76 1.725-.458-.147-.555.831-.22.514 1.937-.827.22-.148-.554-1.729.459.788 2.973 2.819-.748-.243-.901.903-.239.48 1.796z" fill="#fff" stroke="#fff" stroke-width=".355" stroke-miterlimit="79.84" stroke-linecap="round" stroke-linejoin="round"/><path d="M140.963 134.299c-2.633-8.039.266-14.907 9.69-15.892-5.727-3.94-6.558-11.618-1.174-17.237-7.233-.379-11.548-7.893-7.024-14.752-10.241 2.01-21.69-3.248-20.706-18.94" stroke="#263696" stroke-width="1.419" stroke-miterlimit="79.84" stroke-linecap="round" stroke-linejoin="round"/><path d="M134.371 134.367c-1.483-6.782-.4-15.163 8.716-17.243-3.289-4.309-2.766-9.981.38-14.352-6.264-1.487-8.716-5.772-5.884-12.688-11.6.421-21.766-6.746-19.988-24.914m-57.05 69.129c2.629-8.039-.266-14.907-9.694-15.892 5.726-3.94 6.558-11.618 1.173-17.237 7.238-.379 11.554-7.893 7.03-14.752 10.236 2.01 21.69-3.248 20.706-18.94" stroke="#263696" stroke-width="1.419" stroke-miterlimit="79.84" stroke-linecap="round" stroke-linejoin="round"/><path d="M67.495 134.367c1.482-6.782.042-15.163-9.073-17.243 3.284-4.309 2.766-9.981-.38-14.352 6.264-1.487 8.716-5.772 5.883-12.688 11.601.421 21.767-6.746 19.99-24.914" stroke="#263696" stroke-width="1.419" stroke-miterlimit="79.84" stroke-linecap="round" stroke-linejoin="round"/><path fill-rule="evenodd" clip-rule="evenodd" d="M85.962 62.386l-.11 12.872c-.227 2.326 1.54 4.562 4.534 6.74l-1.359 35.26 12.1 5.445 9.837-2.475 1.065-11.88-.993-26.358c2.552-1.094 4.548-2.917 4.6-7.283l-.142-12.502c-.97-4.3-5.547-6.66-14.068-6.895-8.15.203-14.656 1.584-15.464 7.076z" fill="#fff"/><path fill-rule="evenodd" clip-rule="evenodd" d="M97.52 116.675l.637-35.479a.707.707 0 011.417.032l-.642 35.479a.701.701 0 01-.722.691.705.705 0 01-.69-.723zm4.81.032l-.637-35.48a.71.71 0 01.694-.722c.39-.009.713.3.722.691l.637 35.479a.708.708 0 01-1.416.032zm-8.379-.395l1.003-34.701a.707.707 0 01.732-.681.71.71 0 01.684.732l-1.002 34.702a.708.708 0 01-1.417-.052zm11.948.052l-1.003-34.702a.711.711 0 01.685-.733.707.707 0 01.731.681l1.003 34.702a.708.708 0 01-1.416.052zm-14.903-.489l1.093-32.713a.709.709 0 011.416.06l-1.093 32.713a.708.708 0 01-1.416-.06zm17.859.06l-1.093-32.713a.709.709 0 011.416-.06l1.093 32.713a.71.71 0 01-.679.736.705.705 0 01-.737-.676zm-20.012-7.772l.865-25.253-1.34-1.15c-1.593-1.464-3.009-3.24-3.232-5.935v-.062l.071-13.308c.18-4.142 4.947-7.905 15.312-7.905l.205-.003c10.365 0 15.279 3.76 15.459 7.908l.072 13.308c0 .02 0 .041-.005.062-.219 2.695-1.64 4.471-3.232 5.936l-1.34 1.15.87 25.252a.71.71 0 01-1.417.067l-.883-25.598a.762.762 0 01.071-.344c-1.549-2.083-4.14-3.59-9.624-3.49-5.489-.1-8.074 1.407-9.628 3.49a.714.714 0 01.071.344l-.884 25.598a.706.706 0 11-1.411-.067zm11.852-38.47c6.506 0 11.862 1.92 14.139 5.362l-.067-12.565c-.124-2.822-3.735-6.528-14.034-6.528l-.204.002c-10.299 0-13.782 3.699-13.91 6.526l-.067 12.566c2.276-3.443 7.632-5.363 14.143-5.363zm8.383-2.535c-2.409-1.065-5.574-1.598-8.663-1.59-3.099.007-6.026.558-7.975 1.57a.71.71 0 01-.955-.3.708.708 0 01.304-.954c2.224-1.157 5.399-1.722 8.621-1.73 3.232-.008 6.606.545 9.239 1.71a.706.706 0 11-.571 1.293zm-14.727-5.69a.707.707 0 01.494-.868c.741-.203 1.63-.352 2.595-.45a30.93 30.93 0 013.084-.15c2.124-.004 4.344.188 6.083.593a.71.71 0 01.528.85.71.71 0 01-.851.527c-1.597-.373-3.702-.56-5.76-.557-1.026.002-2.03.05-2.942.144-.912.093-1.72.231-2.362.407a.71.71 0 01-.87-.495z" fill="#263696"/><path fill-rule="evenodd" clip-rule="evenodd" d="M82.231 155.047c-1.882-.478-1.483-3.235.993-8.071 9.52-20.735 23.976-37.984 43.38-51.746 4.301-2.392 5.755-.11 4.757 4.091-10.065 22.62-25.392 41.467-46.806 55.948l-2.324-.222z" fill="#fff"/><path fill-rule="evenodd" clip-rule="evenodd" d="M79.675 157.754c-1.079-.872-2.229-2.11-1.392-4.514 1.882-5.101 3.768-8.3 6.258-13.103 9.667-20.465 29.095-39.46 40.805-46.795 3.436-2.238 6.026-2.544 7.537-1.32l.024.02c1.521 1.227 1.758 3.819.285 7.645-4.738 12.975-19.276 35.921-37.292 49.637-4.182 3.433-6.92 5.942-11.52 8.848-2.167 1.313-3.655.434-4.705-.418z" fill="#fff"/><path fill-rule="evenodd" clip-rule="evenodd" d="M79.28 153.598c1.854-5.011 3.693-8.126 6.212-12.991 9.58-20.279 28.861-39.126 40.424-46.37 3.407-2.217 5.384-2.13 6.301-1.388l.024.02c.917.74 1.416 2.656-.043 6.445-4.681 12.815-19.104 35.586-36.954 49.178-4.235 3.477-6.9 5.923-11.42 8.778-1.607.971-2.576.392-3.484-.341-.908-.733-1.673-1.559-1.06-3.331zm5.475.03c4.61-2.413 14.343-9.578 25.226-22.435 9.253-11.424 16.096-21.126 20.179-32.869.023-.55.29-.878-.932-.108l-6.283 6.44-35.524 43.869c-2.362 3.403-3.802 5.742-2.666 5.103zm2.039-5.608l35.529-43.869 4.995-7.481c.499-1.354.233-1.028-.3-.886-9.11 5.584-18.981 15.484-27.963 26.574-10.636 13.989-15.806 26.395-16.7 29.331-.39 1.243 1.602-.652 4.439-3.669z" fill="#263696"/><path fill-rule="evenodd" clip-rule="evenodd" d="M112.039 158.187l-.057-.032-.047-.039c-12.129-9.204-23.416-22.015-34.204-36.779-6.943-8.936-10.308-17.644-9.39-26.473.104-1.366.47-2.062 1.169-2.645l.033-.03.043-.026c.746-.517 1.516-.68 2.86-.41 8.755 1.5 16.24 7.09 22.979 16.179 11.315 14.366 20.611 28.683 26.209 42.836l.024.059.014.062c.494 1.925.167 3.216-1.307 4.335l-1.896 1.437-1.901 1.438c-1.473 1.118-2.809 1.083-4.529.088z" fill="#fff"/><path fill-rule="evenodd" clip-rule="evenodd" d="M112.899 150.215l-.053-.068-2.747 1.758c-7.304-2.965-17.636-15.275-28.486-29.184-1.468-2.323-2.176-4.615-1.112-6.838l4.125-3.522-.014-.017.152-.101.138-.118.01.017 4.51-3.015c2.428-.424 4.448.875 6.287 2.914 10.474 14.194 19.547 27.457 20.436 35.288l-2.438 2.164.052.068-.456.293-.404.361z" fill="#fff"/><path fill-rule="evenodd" clip-rule="evenodd" d="M78.544 120.723c10.774 14.739 21.99 27.461 34.009 36.581 1.44.832 2.314.803 3.403-.018l1.896-1.438-11.102-14.628-.813.616 2.419 7.127-.812.616c-7.552-4.991-16.41-16.234-25.321-27.744-1.853-2.438-1.046-4.754.58-5.987l2.984-2.259-15.626-20.587c-.437.364-.713.775-.803 1.952-.88 8.49 2.334 16.942 9.186 25.769z" fill="#263696"/><path fill-rule="evenodd" clip-rule="evenodd" d="M94.612 108.55c11.297 14.341 20.526 28.568 26.072 42.591.414 1.611.147 2.447-.936 3.269l-1.896 1.438-11.102-14.628.813-.616 6.216 4.25.812-.616c-2.77-8.61-11.215-20.168-19.898-31.851-1.849-2.438-4.3-2.29-5.926-1.057l-2.98 2.259-15.626-20.587c.47-.324.941-.48 2.1-.248 8.417 1.444 15.698 6.817 22.351 15.796z" fill="#263696"/><path d="M117.233 155.035L70.574 93.544" stroke="#263696" stroke-width="2.128" stroke-miterlimit="79.84" stroke-linecap="round" stroke-linejoin="round"/><path clip-rule="evenodd" d="M72.804 103.799l6.777-5.135-4.235 9.609 12.647-1.903-10.033 7.6 5.247-11.653-10.403 1.482z" stroke="#fff" stroke-width=".709" stroke-miterlimit="79.84" stroke-linecap="round" stroke-linejoin="round"/><path fill-rule="evenodd" clip-rule="evenodd" d="M88.61 107.184a1.022 1.022 0 01-1.235-1.626 1.021 1.021 0 011.235 1.626zm-10.032 7.599a1.023 1.023 0 01-1.43-.196 1.022 1.022 0 011.63-1.233 1.02 1.02 0 01-.2 1.429zm4.975-11.448a1.02 1.02 0 11-1.233-1.623 1.02 1.02 0 011.233 1.623zm-7.59 5.75a1.022 1.022 0 01-1.236-1.626 1.022 1.022 0 011.236 1.626zm3.965-9.403a1.02 1.02 0 11-1.23-1.625 1.02 1.02 0 111.23 1.625zm-6.238 4.724a1.023 1.023 0 01-1.43-.196 1.02 1.02 0 01.2-1.429 1.023 1.023 0 011.43.196 1.02 1.02 0 01-.2 1.429z" fill="#fff"/><path clip-rule="evenodd" d="M111.102 153.708l6.777-5.134-10.403 1.481 7.86-5.955-4.234 9.608z" stroke="#fff" stroke-width=".709" stroke-miterlimit="79.84" stroke-linecap="round" stroke-linejoin="round"/><path fill-rule="evenodd" clip-rule="evenodd" d="M114.454 143.492c-.451.34-.537.98-.2 1.429a1.022 1.022 0 001.631-1.233 1.023 1.023 0 00-1.431-.196zm-7.594 5.751a1.02 1.02 0 101.234 1.624 1.02 1.02 0 00-1.234-1.624zm10.132-1.278a1.02 1.02 0 101.235 1.624 1.02 1.02 0 00-1.235-1.624zm-6.237 4.724a1.02 1.02 0 101.235 1.623 1.02 1.02 0 00-1.235-1.623z" fill="#fff"/></svg>