<svg width="23" height="24" fill="none" xmlns="http://www.w3.org/2000/svg"><path d="M13.605 23.797l-.078-.023C6.036 21.074.397 13.636.01 6.482-.151 3.615 1.895.465 5.868.734c.269.019.513.17.65.406 1.193 2.034 1.86 4.354 2.111 6.383a.835.835 0 01-.281.732l-1.81 1.563.27.726c1.026 2.384 2.658 4.273 4.716 5.852l.603.433 2.305-1.685a.81.81 0 01.745-.113c1.434.492 3.7 2.028 5.007 3.458a.834.834 0 01.214.633c-.273 3.184-3.092 5.61-6.793 4.675z" fill="#fff"/><path d="M18.612 19.78l.083-.448-.192-.194c-1.01-.953-2.396-1.886-3.394-2.349l-.084-.034-2.415 1.765a.814.814 0 01-.936.017c-3.142-2.12-5.658-4.864-6.89-8.717a.834.834 0 01.248-.885L6.924 7.3l-.17-.994a15.58 15.58 0 00-.94-2.922L5.305 2.38l-.067-.001c-2.492.082-3.701 2.078-3.594 4.011.327 6.03 4.882 12.47 11.156 15.305l1.252.508c2.327.564 4.04-.648 4.56-2.424z" fill="#013354"/><path d="M14.045 22.199l.012.004a.458.458 0 01-.052-.013l.04.009zm6.953-9.519c.795-6.206-3.223-10.774-7.593-11.027L13.498 0c5.477.317 10.025 5.897 9.127 12.893l-1.627-.214z" fill="#0276B3"/><path d="M16.123 11.668c.314-3.097-1.439-4.896-3.783-5.15l.174-1.647c3.254.351 5.646 2.97 5.243 6.966l-1.634-.17zm-5.633-.863c0-.686.552-1.242 1.231-1.242.68 0 1.231.556 1.231 1.242 0 .686-.552 1.243-1.23 1.243-.68 0-1.232-.557-1.232-1.243z" fill="#0276B3"/></svg>