<svg width="32" height="32" fill="none" xmlns="http://www.w3.org/2000/svg"><circle cx="16" cy="16" r="16" fill="#000" fill-opacity=".08"/><path d="M17.704 24.848l-.058-.017c-5.619-2.025-9.848-7.604-10.14-12.97-.118-2.15 1.415-4.512 4.395-4.31a.616.616 0 01.488.304c.894 1.526 1.394 3.265 1.583 4.787a.626.626 0 01-.211.55l-1.358 1.171.204.545c.768 1.788 1.993 3.205 3.536 4.39l.452.324 1.73-1.264a.608.608 0 01.558-.085c1.075.369 2.774 1.521 3.755 2.594a.62.62 0 01.16.475c-.204 2.388-2.318 4.207-5.094 3.506z" fill="#013354"/><path d="M21.459 21.835l.062-.336-.143-.145c-.759-.715-1.797-1.415-2.546-1.762l-.063-.026-1.81 1.324a.61.61 0 01-.703.013c-2.357-1.59-4.244-3.648-5.168-6.538a.626.626 0 01.186-.664l1.42-1.225-.129-.746a11.692 11.692 0 00-.704-2.191l-.382-.753-.05-.001c-1.87.062-2.776 1.559-2.696 3.008.246 4.523 3.662 9.353 8.367 11.48l.94.38c1.744.423 3.03-.486 3.419-1.818z" fill="#EBEBEB"/><path d="M18.034 23.649l.01.003a.334.334 0 01-.04-.01l.03.007zm5.214-7.139c.596-4.654-2.417-8.08-5.694-8.27l.07-1.24c4.107.238 7.518 4.423 6.845 9.67l-1.22-.16z" fill="#0276B3"/><path d="M19.593 15.751c.235-2.323-1.08-3.672-2.838-3.863l.13-1.235c2.44.264 4.235 2.228 3.933 5.225l-1.225-.127zm-4.225-.647c0-.514.414-.932.923-.932.51 0 .924.418.924.932a.928.928 0 01-.924.932.928.928 0 01-.923-.932z" fill="#0276B3"/></svg>